<svg width="1617" height="1115" viewBox="0 0 1617 1115" fill="none" xmlns="http://www.w3.org/2000/svg">
<g clip-path="url(#clip0_475_40)">
<path d="M876.211 412.235C829.469 373.914 773.357 347.349 713.066 334.996C652.774 322.643 590.253 324.903 531.288 341.565C472.323 358.228 418.818 388.755 375.727 430.322C332.635 471.889 301.349 523.152 284.763 579.368C268.177 635.584 266.828 694.935 280.839 751.93C294.851 808.924 323.771 861.72 364.924 905.432C406.076 949.144 458.131 982.358 516.271 1002C574.41 1021.65 636.757 1027.09 697.539 1017.82L686.396 954.077C636.903 961.625 586.138 957.197 538.798 941.202C491.458 925.206 449.072 898.161 415.564 862.569C382.056 826.977 358.508 783.988 347.099 737.58C335.69 691.173 336.789 642.846 350.294 597.073C363.799 551.299 389.274 509.558 424.361 475.713C459.448 441.867 503.013 417.01 551.026 403.443C599.038 389.875 649.946 388.035 699.038 398.093C748.13 408.152 793.819 429.783 831.878 460.985L876.211 412.235Z" fill="#024561" fill-opacity="0.1"/>
<path d="M922.05 719.667C980.711 737.842 1043.18 741.708 1103.67 730.907C1164.17 720.107 1220.73 694.989 1268.13 657.879C1315.53 620.769 1352.23 572.865 1374.85 518.6C1397.46 464.336 1405.25 405.465 1397.49 347.435C1389.74 289.404 1366.69 234.091 1330.48 186.612C1294.27 139.134 1246.08 101.025 1190.35 75.812C1134.62 50.5992 1073.16 39.0974 1011.66 42.3709C950.163 45.6444 890.61 63.5875 838.514 94.5397L874.844 149.303C917.264 124.1 965.755 109.49 1015.83 106.825C1065.91 104.159 1115.95 113.525 1161.32 134.054C1206.7 154.583 1245.95 185.614 1275.43 224.273C1304.91 262.932 1323.68 307.971 1329.99 355.222C1336.31 402.473 1329.96 450.409 1311.55 494.593C1293.14 538.778 1263.25 577.784 1224.66 608.001C1186.06 638.217 1140.01 658.669 1090.75 667.463C1041.49 676.258 990.628 673.11 942.864 658.311L922.05 719.667Z" fill="#024561" fill-opacity="0.1"/>
</g>
<defs>
<clipPath id="clip0_475_40">
<rect width="1617" height="1115" fill="white"/>
</clipPath>
</defs>
</svg>
