<svg width="47" height="47" viewBox="0 0 47 47" fill="none" xmlns="http://www.w3.org/2000/svg">
<path d="M23.5918 11.0589C24.242 11.0589 25.7868 11.47 25.7868 11.47C29.9717 12.429 32.9173 16.2838 32.9173 20.6359V32.3503L33.773 33.2099L34.4879 33.928H12.5121L13.227 33.2099L14.0827 32.3503V20.6359C14.0827 16.2838 17.0283 12.429 21.2132 11.47C21.2132 11.47 22.8695 11.0589 23.4082 11.0589M23.5 4.40625C21.8842 4.40625 20.6489 5.64716 20.6489 7.27031V8.60678C15.2315 9.84815 11.1452 14.8123 11.1452 20.6359V31.1375L7.34375 34.9562V36.8656H39.6562V34.9562L35.8548 31.1375V20.6359C35.8548 14.8123 31.7684 9.84815 26.3511 8.60678V7.27031C26.3511 5.64716 25.1158 4.40625 23.5 4.40625ZM27.3014 38.775H19.6985C19.6985 40.8754 21.409 42.5938 23.5 42.5938C25.591 42.5938 27.3014 40.8754 27.3014 38.775Z" fill="black"/>
</svg>
