<svg width="45" height="46" viewBox="0 0 45 46" fill="none" xmlns="http://www.w3.org/2000/svg">
<g clip-path="url(#clip0_126_1055)">
<path d="M32.4818 21.4861C32.4818 21.9811 32.0768 22.3861 31.5819 22.3861H11.7818C11.2868 22.3861 10.8818 21.9811 10.8818 21.4861C10.8818 20.9911 11.2868 20.5861 11.7818 20.5861H31.5819C32.0768 20.5861 32.4818 20.9911 32.4818 21.4861ZM26.0918 25.0861H11.7818C11.2868 25.0861 10.8818 25.4911 10.8818 25.9861C10.8818 26.4811 11.2868 26.8861 11.7818 26.8861H26.0918C26.5868 26.8861 26.9918 26.4811 26.9918 25.9861C26.9918 25.4911 26.5868 25.0861 26.0918 25.0861ZM31.5819 16.0861H11.7818C11.2868 16.0861 10.8818 16.4911 10.8818 16.9861C10.8818 17.4811 11.2868 17.8861 11.7818 17.8861H31.5819C32.0768 17.8861 32.4818 17.4811 32.4818 16.9861C32.4818 16.4911 32.0768 16.0861 31.5819 16.0861ZM38.7818 10.6861V32.2861C38.7818 32.7811 38.3769 33.1861 37.8819 33.1861H20.3318L14.2118 39.2161C13.9868 39.4861 12.6818 39.8461 12.6818 38.5861V33.1861H5.48185C4.98685 33.1861 4.58185 32.7811 4.58185 32.2861V10.6861C4.58185 10.1911 4.98685 9.78613 5.48185 9.78613H37.8819C38.3769 9.78613 38.7818 10.1911 38.7818 10.6861ZM36.9818 11.5861H6.38185V31.3861H13.5818C14.0768 31.3861 14.4818 31.7911 14.4818 32.2861V36.4261L19.3418 31.6561C19.5218 31.4761 19.7468 31.3861 19.9718 31.3861H36.9818V11.5861Z" fill="black"/>
<path d="M549.982 -227.364V530.436H-252.818V-227.364H549.982ZM553.582 -230.964H-256.418V534.036H553.582V-230.964Z" fill="#0000FF"/>
</g>
<defs>
<clipPath id="clip0_126_1055">
<rect width="45" height="45" fill="white" transform="translate(0 0.5)"/>
</clipPath>
</defs>
</svg>
