<svg width="105" height="109" viewBox="0 0 105 109" fill="none" xmlns="http://www.w3.org/2000/svg">
<g clip-path="url(#clip0_147_118)">
<path d="M52.222 22.6818C50.6041 22.6818 49.3993 23.4705 49.3993 25.369C49.3993 26.7993 50.1933 27.7924 52.1347 27.7924C53.7803 27.7924 54.8981 26.8294 54.8981 25.3096C54.8981 23.5874 53.898 22.6818 52.222 22.6818ZM48.9874 36.0867C48.6044 36.5531 48.2228 37.0491 48.2228 37.6338C48.2228 38.8012 49.7219 39.1525 51.7812 39.1525C53.4866 39.1525 55.8101 39.0337 55.8101 37.459C55.8101 36.523 54.6923 36.4653 53.28 36.3774L48.9874 36.0867ZM57.6919 22.7699C58.2203 23.4415 58.7799 24.3764 58.7799 25.7195C58.7799 28.9607 56.2215 30.8586 52.5168 30.8586C51.5748 30.8586 50.722 30.742 50.1933 30.5962L49.2224 32.1434L52.104 32.3184C57.1921 32.6405 60.1906 32.7869 60.1906 36.6691C60.1906 40.028 57.2213 41.925 52.104 41.925C46.7815 41.925 44.7523 40.5817 44.7523 38.275C44.7523 36.961 45.3406 36.2615 46.3699 35.2962C45.3992 34.8889 45.0761 34.1592 45.0761 33.3701C45.0761 32.7272 45.3992 32.1436 45.9294 31.5882C46.4584 31.0342 47.0463 30.4788 47.7522 29.8364C46.3115 29.1355 45.2229 27.6171 45.2229 25.4557C45.2229 22.0982 47.4582 19.7922 51.9566 19.7922C53.2216 19.7922 53.9864 19.9075 54.6628 20.0841H60.3978V22.5652L57.6919 22.7699ZM65.5715 17.4634C63.8949 17.4634 62.9245 16.499 62.9245 14.8339C62.9245 13.1711 63.8946 12.2649 65.5715 12.2649C67.2769 12.2649 68.2476 13.1711 68.2476 14.8339C68.2476 16.499 67.2772 17.4634 65.5715 17.4634ZM61.7772 35.012V32.7062L63.2775 32.5024C63.6894 32.4436 63.7478 32.3563 63.7478 31.9175V23.3322C63.7478 23.0118 63.6599 22.8063 63.3648 22.7196L61.7772 22.1642L62.1004 19.7996H68.1883V31.9175C68.1883 32.3853 68.2167 32.4436 68.6592 32.5027L70.1589 32.7065V35.012H61.7772ZM81.7882 33.8799C80.5232 34.4928 78.6706 35.0476 76.9938 35.0476C73.4944 35.0476 72.1716 33.6474 72.1716 30.3459V22.6961C72.1716 22.521 72.1716 22.4042 71.9355 22.4042H69.8773V19.8045C72.4659 19.5117 73.4944 18.2269 73.8178 15.044H76.6119V19.1917C76.6119 19.3955 76.6119 19.4836 76.8475 19.4836H80.9935V22.4036H76.6119V29.3823C76.6119 31.1051 77.0241 31.7762 78.6114 31.7762C79.4358 31.7762 80.2876 31.5724 80.9932 31.3095L81.7882 33.8799Z" fill="#D8D2B9"/>
<path d="M38.2154 26.217L24.7694 12.866C24.5853 12.6831 24.3666 12.538 24.126 12.439C23.8854 12.34 23.6275 12.2891 23.367 12.2891C23.1066 12.2891 22.8487 12.34 22.608 12.439C22.3674 12.538 22.1488 12.6831 21.9646 12.866L19.1726 15.6388L22.7145 19.1556C23.1308 19.015 23.5785 18.993 24.0067 19.092C24.435 19.1911 24.8268 19.4073 25.1377 19.7161C25.4502 20.0269 25.6685 20.4187 25.7674 20.8468C25.8664 21.2749 25.8421 21.722 25.6973 22.137L29.1103 25.5266C29.9361 25.2442 30.8892 25.427 31.5485 26.0829C31.7677 26.3005 31.9416 26.5588 32.0603 26.8431C32.1789 27.1274 32.24 27.4321 32.24 27.7398C32.24 28.0476 32.1789 28.3523 32.0603 28.6366C31.9416 28.9209 31.7677 29.1792 31.5485 29.3968C31.1628 29.7801 30.6553 30.0189 30.1123 30.0724C29.5693 30.126 29.0243 29.991 28.5702 29.6905C28.1162 29.39 27.781 28.9425 27.6218 28.4242C27.4626 27.9059 27.4892 27.3489 27.697 26.8479L24.5139 23.687L24.5136 32.0053C24.7443 32.1187 24.9551 32.2683 25.1377 32.4485C25.3569 32.6661 25.5308 32.9245 25.6494 33.2088C25.768 33.4932 25.8291 33.798 25.8291 34.1057C25.8291 34.4135 25.768 34.7183 25.6494 35.0026C25.5308 35.287 25.3569 35.5453 25.1377 35.763C24.2156 36.6786 22.7211 36.6786 21.8005 35.763C21.5254 35.49 21.3225 35.1538 21.2099 34.7843C21.0972 34.4147 21.0782 34.0233 21.1547 33.6447C21.2311 33.2661 21.4006 32.9122 21.648 32.6143C21.8954 32.3164 22.2131 32.0839 22.5728 31.9373V23.5415C22.2834 23.4241 22.0208 23.2502 21.8005 23.03C21.1021 22.3374 20.9341 21.3198 21.292 20.4682L17.8007 17.0008L8.58133 26.155C8.39711 26.3379 8.25097 26.5551 8.15126 26.7941C8.05156 27.0331 8.00024 27.2892 8.00024 27.548C8.00024 27.8067 8.05156 28.0628 8.15126 28.3018C8.25097 28.5408 8.39711 28.758 8.58133 28.9409L22.0274 42.2922C22.3993 42.6614 22.9038 42.8689 23.4298 42.8689C23.9557 42.8689 24.4602 42.6614 24.8321 42.2922L38.2154 29.0032C38.5874 28.6337 38.7963 28.1326 38.7963 27.6101C38.7963 27.0876 38.5874 26.5865 38.2154 26.217Z" fill="#DE4C36"/>
</g>
<g clip-path="url(#clip1_147_118)">
<path d="M66.0002 45C54.9558 45 46 53.9399 46 64.9682C46 73.7906 51.7306 81.2756 59.6773 83.9159C60.6769 84.1008 61.0439 83.4827 61.0439 82.9553C61.0439 82.4792 61.0252 80.9062 61.0167 79.2378C55.4527 80.4455 54.2786 76.8817 54.2786 76.8817C53.3688 74.5737 52.0578 73.9598 52.0578 73.9598C50.2433 72.7206 52.1947 72.7462 52.1947 72.7462C54.203 72.8869 55.2605 74.8038 55.2605 74.8038C57.0444 77.8564 59.9394 76.9739 61.0806 76.4636C61.2602 75.1732 61.7784 74.2921 62.3505 73.7935C57.9081 73.2887 53.2383 71.5765 53.2383 63.9253C53.2383 61.7452 54.0195 59.9638 55.2989 58.5654C55.0913 58.0625 54.4067 56.0317 55.4927 53.2811C55.4927 53.2811 57.1722 52.7445 60.9942 55.328C62.5895 54.8856 64.3005 54.6637 66.0002 54.6561C67.6998 54.6637 69.4122 54.8854 71.0105 55.328C74.8278 52.7446 76.505 53.2813 76.505 53.2813C77.5936 56.0315 76.9088 58.0627 76.7011 58.5654C77.9834 59.9638 78.7594 61.7452 78.7594 63.9253C78.7594 71.5947 74.0806 73.2834 69.627 73.7778C70.3444 74.3974 70.9836 75.6127 70.9836 77.4756C70.9836 80.1473 70.9605 82.2976 70.9605 82.9553C70.9605 83.4868 71.3205 84.1094 72.3342 83.9131C80.2766 81.27 86 73.7878 86 64.9683C86 53.9399 77.0455 45 66.0002 45ZM53.4908 73.445C53.4467 73.5443 53.2903 73.574 53.148 73.5059C53.0028 73.4408 52.9214 73.3056 52.9683 73.206C53.0114 73.1039 53.1681 73.0753 53.3128 73.1438C53.4581 73.209 53.5409 73.3455 53.4908 73.445ZM54.4745 74.3214C54.3792 74.4097 54.1927 74.3687 54.0661 74.2292C53.9353 74.0901 53.9108 73.9038 54.0075 73.8143C54.1059 73.726 54.2867 73.7673 54.4178 73.9065C54.5487 74.0474 54.5741 74.2322 54.4745 74.3214ZM55.1495 75.4428C55.0269 75.5278 54.8266 75.4481 54.7027 75.2706C54.5802 75.093 54.5802 74.8801 54.7053 74.7948C54.8295 74.7094 55.0269 74.7862 55.1523 74.9625C55.2745 75.1429 55.2745 75.3559 55.1494 75.4429M56.2906 76.7416C56.1811 76.8624 55.9475 76.8299 55.7766 76.6652C55.6017 76.5042 55.5531 76.2758 55.6631 76.1551C55.7741 76.034 56.0089 76.068 56.1811 76.2315C56.3545 76.3922 56.4077 76.6223 56.2906 76.7416ZM57.7659 77.18C57.7175 77.3365 57.4925 77.4076 57.2661 77.3411C57.0398 77.2727 56.8919 77.0895 56.9375 76.9315C56.9845 76.7739 57.2105 76.7 57.4386 76.7711C57.6645 76.8391 57.813 77.021 57.7659 77.1801M59.4447 77.3663C59.4503 77.5308 59.2583 77.6673 59.0205 77.6705C58.7814 77.6758 58.5878 77.5425 58.5852 77.3803C58.5852 77.2142 58.773 77.0789 59.0122 77.0748C59.25 77.0702 59.4447 77.2025 59.4447 77.3663ZM61.0939 77.3031C61.1223 77.4638 60.9572 77.6288 60.7209 77.6728C60.4889 77.7151 60.2739 77.6159 60.2444 77.4566C60.2156 77.2918 60.3839 77.1268 60.6156 77.0842C60.8522 77.0432 61.0637 77.1397 61.0939 77.3031Z" fill="white"/>
</g>
<defs>
<clipPath id="clip0_147_118">
<rect width="74" height="31" fill="white" transform="translate(8 12)"/>
</clipPath>
<clipPath id="clip1_147_118">
<rect width="40" height="39" fill="white" transform="translate(46 45)"/>
</clipPath>
</defs>
</svg>
