<svg width="125" height="129" viewBox="0 0 125 129" fill="none" xmlns="http://www.w3.org/2000/svg">
<g clip-path="url(#clip0_147_51)">
<path d="M86.8922 31.0544L81.2636 93.8005L55.9622 100.78L30.7307 93.8101L25.1078 31.0544H86.8922Z" fill="#E44D26"/>
<path d="M56 95.4451L76.4447 89.805L81.2546 36.1855H56V95.4451Z" fill="#F16529"/>
<path d="M45.0579 51.5793H56V43.8826H36.6049L36.7899 45.9474L38.6911 67.1576H56V59.4609H45.7649L45.0579 51.5793ZM46.8012 71.0061H39.0367L40.1202 83.0911L55.9644 87.4676L56 87.458V79.4501L55.9661 79.4591L47.3519 77.1445L46.8012 71.0061Z" fill="#EBEBEB"/>
<path d="M30.8561 14H34.7868V17.8644H38.3825V14H42.3135V25.7023H38.3828V21.7837H34.787V25.7023H30.8563L30.8561 14ZM47.4823 17.8808H44.0224V14H54.8758V17.8808H51.4137V25.7023H47.483V17.8808H47.4823ZM56.5982 14H60.6967L63.2179 18.1119L65.7367 14H69.8369V25.7023H65.9222V19.902L63.2179 24.0628H63.1501L60.4441 19.902V25.7023H56.5982V14ZM71.793 14H75.725V21.8343H81.2526V25.7023H71.7928L71.793 14Z" fill="white"/>
<path d="M55.9734 67.1576H65.4979L64.5999 77.1397L55.9731 79.4567V87.464L71.8299 83.0911L71.9461 81.7907L73.764 61.5277L73.9527 59.4609H55.9734V67.1576ZM55.9734 51.5605V51.5793H74.6565L74.8115 49.8494L75.1641 45.9474L75.3489 43.8826H55.9734V51.5605Z" fill="white"/>
</g>
<g clip-path="url(#clip1_147_51)">
<path d="M83.9695 111.821L63.6215 106.132L59.0869 54.918H108.913L104.374 106.125L83.9695 111.821Z" fill="#264DE4"/>
<path d="M100.488 102.864L104.367 59.1055H84V107.467L100.488 102.864Z" fill="#2965F1"/>
<path d="M69.4822 78.1L70.0412 84.3813H84V78.1H69.4822ZM68.3588 65.3867L68.9258 71.668H84V65.3867H68.3588ZM84 94.4131L83.9726 94.4204L77.0258 92.5315L76.5816 87.522H70.3199L71.1937 97.3845L83.9713 100.956L84 100.948V94.4131Z" fill="#EBEBEB"/>
<path d="M70.8132 41H78.3679V44.1814H73.9726V47.3629H78.3683V50.5441H70.8132V41ZM79.8791 41H87.4339V43.7664H83.0384V44.3197H87.4339V50.6826H79.8792V47.7775H84.2748V47.2242H79.8789L79.8791 41ZM88.9451 41H96.5V43.7664H92.1044V44.3197H96.5V50.6826H88.9451V47.7775H93.3406V47.2242H88.9453L88.9451 41Z" fill="white"/>
<path d="M98.4779 78.1L99.6039 65.3867H83.9785V71.668H92.7679L92.2003 78.1H83.9785V84.3813H91.6595L90.9353 92.5276L83.9783 94.4184V100.953L96.766 97.3845L96.8597 96.3232L98.3257 79.7867L98.4779 78.1Z" fill="white"/>
</g>
<defs>
<clipPath id="clip0_147_51">
<rect width="62" height="87" fill="white" transform="translate(25 14)"/>
</clipPath>
<clipPath id="clip1_147_51">
<rect width="50" height="71" fill="white" transform="translate(59 41)"/>
</clipPath>
</defs>
</svg>
