<svg width="67" height="71" viewBox="0 0 67 71" fill="none" xmlns="http://www.w3.org/2000/svg">
<g clip-path="url(#clip0_147_78)">
<path d="M0 0H190.578V193.362H0V0Z" fill="#F7DF1E"/>
<path d="M0 0H67V71H0V0Z" fill="#F7DF1E"/>
<path d="M17.6168 59.3328L22.7439 56.0446C23.7332 57.903 24.633 59.4756 26.7914 59.4756C28.8603 59.4756 30.1649 58.618 30.1649 55.2821V32.596H36.4611V55.3764C36.4611 62.287 32.6384 65.4327 27.0612 65.4327C22.0244 65.4327 19.1008 62.6684 17.6166 59.3322M39.881 58.6178L45.0075 55.4724C46.3572 57.8079 48.1113 59.5236 51.2142 59.5236C53.8233 59.5236 55.4868 58.1413 55.4868 56.2348C55.4868 53.9473 53.7777 53.1369 50.8994 51.8029L49.3256 51.0873C44.783 49.0386 41.7698 46.4648 41.7698 41.0317C41.7698 36.0273 45.3677 32.2144 50.9896 32.2144C54.9924 32.2144 57.8708 33.692 59.9394 37.5524L55.0369 40.8888C53.9573 38.8395 52.7884 38.0294 50.9894 38.0294C49.1453 38.0294 47.976 39.2686 47.976 40.8888C47.976 42.8904 49.1453 43.7011 51.8436 44.9403L53.4176 45.655C58.7698 48.0859 61.7829 50.564 61.7829 56.1397C61.7829 62.1453 57.3306 65.4335 51.349 65.4335C45.5024 65.4335 41.7245 62.4787 39.8807 58.618" fill="white"/>
</g>
<defs>
<clipPath id="clip0_147_78">
<rect width="67" height="71" fill="white"/>
</clipPath>
</defs>
</svg>
