<svg width="40" height="40" viewBox="0 0 40 40" fill="none" xmlns="http://www.w3.org/2000/svg">
<path d="M20 35.7132C19.8189 35.7134 19.6395 35.6777 19.4721 35.6084C19.3048 35.539 19.1528 35.4373 19.0249 35.309L5.85796 22.1421C1.82485 18.109 1.82485 11.5463 5.85796 7.51317C9.73106 3.63731 15.9393 3.48144 20 7.05524C24.058 3.48558 30.2662 3.63593 34.1421 7.51317C38.1752 11.5463 38.1752 18.1104 34.1421 22.1421L20.9752 35.309C20.8473 35.4373 20.6953 35.539 20.5279 35.6084C20.3606 35.6777 20.1812 35.7134 20 35.7132ZM13.1738 7.2442C12.1775 7.24246 11.1906 7.43748 10.2699 7.8181C9.34912 8.19871 8.51259 8.75741 7.8083 9.46213C6.38737 10.8857 5.58933 12.8149 5.58933 14.8263C5.58933 16.8376 6.38737 18.7668 7.8083 20.1904L20 32.3821L32.1918 20.1904C33.6127 18.7668 34.4107 16.8376 34.4107 14.8263C34.4107 12.8149 33.6127 10.8857 32.1918 9.46213C30.7682 8.0412 28.839 7.24316 26.8276 7.24316C24.8162 7.24316 22.8871 8.0412 21.4635 9.46213L20.9752 9.95041C20.8472 10.0786 20.6952 10.1803 20.5279 10.2497C20.3605 10.3191 20.1812 10.3548 20 10.3548C19.8189 10.3548 19.6395 10.3191 19.4722 10.2497C19.3048 10.1803 19.1528 10.0786 19.0249 9.95041L18.5366 9.46213C17.8328 8.75743 16.9968 8.19872 16.0765 7.8181C15.1562 7.43747 14.1697 7.24244 13.1738 7.2442Z" fill="black"/>
</svg>
