<svg width="85" height="58" viewBox="0 0 85 58" fill="none" xmlns="http://www.w3.org/2000/svg">
<g clip-path="url(#clip0_147_138)">
<path d="M25.2858 38.2727L27.869 46.6631C28.4494 48.5682 28.6915 49.898 28.5945 50.656C30.0073 46.8682 30.9945 42.7404 31.5561 38.2727H34.6622C33.3266 45.5462 31.5651 50.8316 29.3785 54.1288C27.6748 56.6697 25.8085 57.9401 23.7761 57.9401C23.2342 57.9401 22.5662 57.7762 21.7734 57.4508V55.6975C22.1608 55.7543 22.6151 55.7847 23.1378 55.7847C24.0859 55.7847 24.85 55.5217 25.4314 54.9967C26.1275 54.357 26.476 53.6381 26.476 52.8412C26.476 52.2971 26.2042 51.1805 25.6632 49.4913L22.064 38.2727H25.2858ZM5.51554 33.1157L10.247 47.5669H10.2762L15.0367 33.1157H18.9261C19.7778 40.2825 20.2808 46.8398 20.4352 52.7835H17.1561C17.0407 47.2273 16.7211 42.0027 16.1985 37.1086H16.1699L11.1765 52.7835H8.6793L3.71609 37.1086H3.68688C3.31865 41.8087 3.08689 47.0334 2.99027 52.7835H0C0.193242 45.7903 0.676846 39.235 1.45081 33.1157H5.51554Z" fill="#00758F"/>
<path d="M58.5202 32.8239C63.6097 32.8239 66.1546 36.0789 66.1546 42.5857C66.1546 46.1215 65.3892 48.7923 63.86 50.5967C63.5845 50.9264 63.2798 51.2112 62.9591 51.4751L66.5608 53.2578L66.5573 53.2577L65.2785 55.4683L60.588 52.7287C59.8106 52.9592 58.9551 53.0744 58.0229 53.0744C55.5239 53.0744 53.6572 52.3453 52.4231 50.889C51.0684 49.2779 50.3914 46.7417 50.3914 43.2847C50.3914 39.7688 51.1554 37.1081 52.685 35.3014C54.0782 33.6489 56.0236 32.8239 58.5202 32.8239ZM42.9346 32.8523C44.7536 32.8523 46.4077 33.3396 47.8975 34.3106L47.1408 35.9986C45.8659 35.4562 44.609 35.1838 43.3696 35.1838C42.3638 35.1838 41.5889 35.4261 41.0487 35.9137C40.5055 36.397 40.1695 37.0188 40.1695 37.777C40.1695 38.942 40.9985 39.9522 42.5294 40.8058C43.0309 41.0802 43.5307 41.3578 44.0287 41.6386L44.1429 41.7029L44.2001 41.7351L44.3145 41.7994L44.3716 41.8317L44.4859 41.8962C45.6447 42.5501 46.735 43.1743 46.735 43.1743C48.2657 44.262 49.0287 45.4217 49.0287 47.3317C49.0287 48.9997 48.4181 50.369 47.2009 51.4404C45.9828 52.507 44.3464 53.0418 42.2971 53.0418C40.3805 53.0418 38.5229 52.4262 36.7236 51.2054L37.5653 49.5159C39.1138 50.2929 40.5149 50.6809 41.7732 50.6809C42.9532 50.6809 43.8769 50.4172 44.5451 49.8963C45.212 49.3717 45.6116 48.6399 45.6116 47.7121C45.6116 46.5443 44.8001 45.546 43.3115 44.7086C42.8455 44.4509 42.3809 44.1907 41.9178 43.928L41.8037 43.8633C41.5942 43.7448 41.3832 43.6249 41.1765 43.5074L41.0644 43.4435C40.0592 42.8712 39.1901 42.3711 39.1901 42.3711C37.702 41.2814 36.9557 40.1123 36.9557 38.1858C36.9557 36.5926 37.5122 35.3048 38.6235 34.3251C39.7375 33.3432 41.1747 32.8523 42.9346 32.8523ZM72.1359 33.1156V50.364H78.318V52.7834H69.0006V33.1157L72.1359 33.1156ZM81.7532 50.3715V50.7803H81.0735V52.7812H80.5539V50.7803H79.8479V50.3715H81.7532ZM83.0083 50.3715L83.6609 52.0141L84.2604 50.3715H84.997V52.7812H84.5072V50.9473L83.8249 52.7812H83.4718L82.7883 50.9473H82.7621V52.7812H82.2987V50.3715H83.0083ZM58.2001 35.2426C55.2008 35.2426 53.7004 37.7205 53.7004 42.6729C53.7004 45.5098 54.098 47.5669 54.8917 48.849C55.6268 50.0356 56.7782 50.6277 58.3458 50.6277C61.3451 50.6277 62.8454 48.1306 62.8454 43.1386C62.8454 40.3415 62.4478 38.302 61.655 37.0192C60.9191 35.8352 59.7683 35.2426 58.2002 35.2426" fill="#F29111"/>
<path d="M50.339 1.21868C51.3339 -1.22862 54.8127 0.624716 56.1628 1.47959C56.4937 1.69348 56.8732 2.14535 57.2525 2.31237C57.8444 2.33563 58.4357 2.382 59.0285 2.40676C60.1405 2.66834 61.1821 2.88206 62.0583 3.38163C66.1304 5.78223 68.7811 8.22853 71.2207 12.2693C71.742 13.1251 72.0025 14.0513 72.4283 14.9775C73.0193 16.358 73.6834 17.8072 74.3694 19.1126C74.6765 19.7315 74.9141 20.4197 75.3406 20.9423C75.5071 21.1813 75.9801 21.2518 76.2628 21.3945C77.0444 21.7995 77.9914 22.107 78.7265 22.5823C80.0993 23.4392 81.4265 24.4602 82.6331 25.5056C83.0829 25.9091 83.3893 26.4803 83.8178 26.907V27.1224C83.4375 27.2392 83.0585 27.3589 82.6791 27.4548C81.8505 27.6678 81.1166 27.6196 80.3127 27.8329C79.816 27.9771 79.1993 28.1674 78.6783 28.2158L78.7265 28.2643C79.0329 29.1409 80.6911 29.8539 81.4495 30.3782C82.3705 31.0436 83.224 31.8507 83.911 32.7775C84.1482 33.014 84.3854 33.2292 84.6215 33.465C84.7865 33.704 84.833 34.0131 85 34.2262V34.2983C84.8151 34.233 84.6821 34.1083 84.5561 33.978L84.4809 33.8994C84.4057 33.8213 84.3298 33.7445 84.2433 33.6812C83.7207 33.3239 83.2017 32.8965 82.6791 32.5643C81.7807 31.9936 80.7386 31.6624 79.816 31.0895C79.2944 30.757 78.7972 30.3782 78.3 29.9976C77.8492 29.6641 77.3529 29.0236 77.0696 28.5483C76.9028 28.2857 76.8799 27.9771 76.6893 27.7872C76.7233 27.4699 77.0137 27.3757 77.3067 27.2982L77.3741 27.2805C77.4752 27.2542 77.5742 27.2279 77.6605 27.1932C78.8913 26.67 80.3587 26.4803 82.2536 26.5278C82.1822 26.0515 80.9982 25.458 80.6202 25.1728C79.8615 24.6254 79.0582 24.0542 78.2533 23.556C77.8268 23.2951 77.0919 23.1046 76.6194 22.8914C75.9801 22.6298 74.5591 22.3684 74.2049 21.8702C73.6031 21.0848 73.1708 20.1479 72.7511 19.2017L72.6368 18.9434C72.5988 18.8573 72.5606 18.7713 72.5223 18.6853C72.0262 17.5458 71.41 16.3577 70.9128 15.1909C70.6528 14.6217 70.5334 14.1221 70.2487 13.5762C68.521 10.2261 65.9639 7.42135 62.8635 5.44885C61.8447 4.80703 60.7086 4.21307 59.4545 3.8094C58.7438 3.59452 57.8908 3.71334 57.1336 3.54848H56.6353C56.2099 3.42849 55.8548 2.97712 55.523 2.73914C54.79 2.24091 54.0559 1.90637 53.1793 1.55089C52.8722 1.4083 51.9951 1.07625 51.689 1.33767C51.4994 1.38536 51.4033 1.45699 51.3566 1.64744C51.168 1.93163 51.3339 2.35973 51.4513 2.62181C51.8069 3.38129 52.3036 3.83266 52.7545 4.47449C53.1556 5.04368 53.6538 5.68551 53.9382 6.3044C54.5518 7.63474 54.8375 9.10867 55.4061 10.4388C55.6169 10.9391 55.9505 11.5083 56.2574 11.9595C56.5176 12.3176 56.9905 12.5765 57.1336 13.0299C57.4189 13.5052 56.7067 15.0735 56.5418 15.5716C55.925 17.5205 56.0446 20.2295 56.7548 21.9189L56.7926 22.0079L56.8305 22.0982C57.0898 22.7169 57.3674 23.3832 58.0569 23.5562C58.1043 23.509 58.0569 23.5337 58.151 23.509C58.3178 22.2014 58.3648 20.9422 58.815 19.9191C59.0752 19.2794 59.5947 18.8272 59.9508 18.3051C60.1882 18.4473 60.1882 18.8763 60.3296 19.1601C60.6377 19.8963 60.9686 20.7035 61.3484 21.4419C62.1281 22.9625 63.0053 24.4368 63.9992 25.767C64.3321 26.2421 64.8044 26.7651 65.2304 27.193C65.4201 27.3587 65.6326 27.4545 65.7753 27.6677H65.8217V27.7395C65.1115 27.4774 64.6613 26.7418 64.0948 26.3124C63.0284 25.5052 61.7512 24.293 61.0161 23.1299C60.7086 22.4621 60.3763 21.8221 60.0449 21.1577V21.1097C59.9033 21.2995 59.9508 21.4879 59.8799 21.7751C59.5724 22.9625 59.8092 24.3171 58.7438 24.7442C57.5362 25.2445 56.6354 23.9371 56.2574 23.3429C55.0495 21.3709 54.7186 18.0442 55.5704 15.3587C55.7597 14.7643 55.7854 14.0513 56.1158 13.5767C56.0444 13.1476 55.714 13.0302 55.523 12.7673C55.1916 12.3179 54.9079 11.7945 54.6484 11.2954C54.15 10.3205 53.7954 9.1557 53.4171 8.11021C53.2507 7.68327 53.2031 7.25466 53.0372 6.85049C52.7543 6.2336 52.2329 5.61471 51.8306 5.06895C51.2859 4.28453 49.6995 2.76424 50.339 1.21868ZM58.1038 5.87446C58.1671 5.93795 58.2435 5.99346 58.3225 6.04813L58.4178 6.11361C58.5448 6.20169 58.6678 6.29442 58.7432 6.42073C58.8627 6.58791 58.8849 6.75294 59.028 6.92046C59.028 7.49165 58.8627 7.87139 58.5288 8.10805C58.5288 8.10805 58.5061 8.13297 58.4827 8.15624C58.2934 7.7755 58.1276 7.39676 57.937 7.01635C57.7022 6.6843 57.3704 6.42089 57.1791 6.04148H57.1331V5.99379C57.4189 5.92316 57.7022 5.87446 58.1038 5.87446Z" fill="#00758F"/>
</g>
<defs>
<clipPath id="clip0_147_138">
<rect width="85" height="58" fill="white"/>
</clipPath>
</defs>
</svg>
