<svg width="69" height="79" viewBox="0 0 69 79" fill="none" xmlns="http://www.w3.org/2000/svg">
<g clip-path="url(#clip0_147_97)">
<path d="M61.6218 34.1021C61.594 34.102 61.5668 34.1115 61.5437 34.1292L60.279 34.9748C60.2552 34.9916 60.2357 35.0153 60.2223 35.0434C60.2088 35.0715 60.202 35.1032 60.2025 35.1352V36.8263C60.2025 36.8979 60.2321 36.9522 60.279 36.988L61.5437 37.8323C61.5668 37.85 61.594 37.8594 61.6218 37.8594C61.6497 37.8594 61.6768 37.85 61.7 37.8323L62.9625 36.988C62.9865 36.9708 63.0063 36.9469 63.02 36.9185C63.0337 36.8901 63.0408 36.8581 63.0406 36.8257V35.1365C63.0408 35.1043 63.0337 35.0726 63.02 35.0445C63.0063 35.0164 62.9865 34.9928 62.9625 34.976L61.6995 34.1298C61.6765 34.1122 61.6495 34.1021 61.6218 34.1021ZM34.0795 44.2141C33.8493 44.2141 33.6202 44.2782 33.4251 44.4041L27.1995 48.556C26.9999 48.69 26.8344 48.8815 26.7196 49.1115C26.6048 49.3415 26.5446 49.602 26.545 49.8669V58.1514C26.545 58.6908 26.7941 59.1944 27.1995 59.4648L28.8382 60.5424C29.6339 60.9917 29.9147 60.9904 30.2732 60.9904C31.443 60.9904 32.1141 60.164 32.1141 58.7439V50.5692C32.1134 50.5123 32.0935 50.458 32.0585 50.4176C32.0235 50.3772 31.9762 50.3539 31.9265 50.3526H31.1319C31.0821 50.3536 31.0345 50.3767 30.9993 50.4171C30.964 50.4576 30.944 50.5121 30.9433 50.5692V58.7457C30.9433 59.3746 30.367 60.0048 29.4468 59.466L27.7461 58.3334C27.6835 58.2977 27.6517 58.2063 27.6517 58.1347V49.8484C27.6517 49.7768 27.6835 49.6879 27.7461 49.6515L33.9696 45.5182C34.0165 45.4824 34.0952 45.4824 34.1577 45.5182L40.3828 49.6515C40.4448 49.6879 40.4755 49.7589 40.4755 49.849V58.1341C40.4755 58.2236 40.4448 58.297 40.3828 58.3328L34.1577 62.4846C34.1108 62.5204 34.0321 62.5204 33.9696 62.4846L32.3788 61.3867C32.3319 61.3509 32.2694 61.333 32.2225 61.3688C31.7858 61.6564 31.7093 61.694 31.2877 61.8557C31.1939 61.8915 31.0381 61.9625 31.3497 62.16L33.4251 63.5808C33.6278 63.7061 33.8456 63.7777 34.0795 63.7777C34.3135 63.7777 34.5469 63.7067 34.7339 63.6172L40.9596 59.4654C41.1593 59.3309 41.3247 59.1389 41.4395 58.9084C41.5543 58.678 41.6145 58.4173 41.614 58.152V49.8669C41.614 49.3274 41.365 48.8257 40.9596 48.556L34.7339 44.4041C34.5335 44.2779 34.3083 44.2125 34.0795 44.2141ZM43.7988 47.9974C43.4793 47.9989 43.1734 48.1455 42.9483 48.4051C42.7232 48.6647 42.5973 49.016 42.5983 49.3818C42.5975 49.7474 42.7234 50.0986 42.9485 50.358C43.1736 50.6175 43.4794 50.764 43.7988 50.7655C44.4549 50.7655 44.9998 50.1366 44.9998 49.3818C44.9982 49.0169 44.8713 48.6673 44.6467 48.4085C44.422 48.1496 44.1175 48.0016 43.7988 47.9974ZM43.7826 48.2313C43.9155 48.2294 44.0474 48.2578 44.1707 48.3148C44.2939 48.3718 44.406 48.4563 44.5004 48.5634C44.5949 48.6704 44.6698 48.7979 44.7208 48.9384C44.7719 49.0789 44.798 49.2296 44.7977 49.3818C44.7977 50.0113 44.3449 50.5507 43.7832 50.5507C43.2377 50.5507 42.7848 50.0286 42.7848 49.3818C42.7848 48.7349 43.2527 48.2313 43.7826 48.2313ZM43.3465 48.6084V50.1897H43.6128V49.5626H43.8468C43.9406 49.5626 43.9713 49.5984 43.9869 49.6879C43.9869 49.7064 44.0333 50.1014 44.0333 50.173H44.3136C44.2824 50.1014 44.2667 49.8854 44.2511 49.7595C44.236 49.562 44.2209 49.4182 44.0333 49.4003C44.1271 49.3639 44.2829 49.3102 44.2829 49.0226C44.2829 48.609 43.9702 48.609 43.815 48.609L43.3465 48.6084ZM43.581 48.8602H43.7988C43.8775 48.8602 44.0015 48.8602 44.0015 49.0756C44.0015 49.1472 43.9713 49.2923 43.7988 49.2923H43.5805L43.581 48.8602ZM35.7808 50.1008C34.0019 50.1008 32.941 50.9636 32.941 52.4196C32.941 53.9835 34.0019 54.4131 35.7026 54.6112C37.7457 54.8451 37.902 55.187 37.902 55.6542C37.902 56.4628 37.3392 56.8047 36.0288 56.8047C34.3749 56.8047 34.0165 56.3368 33.8914 55.3845C33.8914 55.2765 33.8148 55.2055 33.721 55.2055H32.9098C32.8602 55.2062 32.8128 55.2292 32.7779 55.2695C32.743 55.3098 32.7234 55.3642 32.7232 55.4209C32.7232 56.643 33.2844 58.081 36.0153 58.081C37.9802 58.081 39.1192 57.1812 39.1192 55.5999C39.1192 54.0539 38.2136 53.641 36.2956 53.3534C34.3604 53.0658 34.1582 52.9041 34.1582 52.3831C34.1582 51.9517 34.3296 51.3771 35.7646 51.3771C37.0438 51.3771 37.5268 51.7012 37.7144 52.6893C37.7238 52.7339 37.7457 52.7737 37.7768 52.8027C37.8078 52.8317 37.8463 52.8482 37.8864 52.8497H38.7128C38.7602 52.8497 38.8071 52.8146 38.8389 52.7788C38.8679 52.731 38.8838 52.6745 38.8847 52.6164C38.7602 50.8914 37.778 50.1008 35.7808 50.1008Z" fill="#5FA04E"/>
<path d="M46.3982 15.2222C46.3318 15.2214 46.2665 15.2403 46.2084 15.2771C46.148 15.3174 46.0977 15.3747 46.0623 15.4437C46.0269 15.5127 46.0076 15.5909 46.0063 15.6709V27.3536C46.0063 27.461 45.9578 27.5696 45.8645 27.6412C45.8214 27.6678 45.7733 27.6817 45.7244 27.6817C45.6754 27.6817 45.6273 27.6678 45.5842 27.6412L43.9314 26.5457C43.8102 26.4662 43.6728 26.4243 43.5331 26.4243C43.3933 26.4243 43.256 26.4662 43.1347 26.5457L36.5215 30.9494C36.3991 31.0284 36.2971 31.143 36.2258 31.2816C36.1546 31.4202 36.1165 31.5779 36.1156 31.7388V40.5275C36.1156 40.8509 36.2719 41.157 36.5215 41.3187L43.1358 45.7224C43.257 45.8018 43.3942 45.8436 43.5339 45.8436C43.6735 45.8436 43.8108 45.8018 43.932 45.7224L50.5457 41.3187C50.7953 41.157 50.9516 40.8509 50.9516 40.5275V18.6192C50.9516 18.2779 50.7953 17.9711 50.5457 17.8101L46.5998 15.2771C46.5374 15.2412 46.468 15.2224 46.3982 15.2222ZM7.37814 26.1871C7.25362 26.1871 7.12909 26.239 7.0202 26.3106L0.405906 30.6982C0.281709 30.7793 0.178637 30.8969 0.107293 31.0388C0.0359504 31.1807 -0.00108688 31.3417 -7.5863e-06 31.5055L0.0161643 43.295C0.0161643 43.4573 0.0932502 43.619 0.218313 43.6912C0.276189 43.7351 0.344054 43.7584 0.413453 43.7584C0.482853 43.7584 0.550718 43.7351 0.608594 43.6912L4.54052 41.1033C4.7901 40.9416 4.94481 40.6355 4.94481 40.3121V34.7944C4.94481 34.471 5.10114 34.1649 5.35127 34.0032L7.0202 32.8892C7.14473 32.7991 7.28596 32.7633 7.42612 32.7633C7.56627 32.7633 7.70697 32.7991 7.8164 32.8892L9.48534 34.0032C9.73492 34.1649 9.89125 34.471 9.89125 34.7944V40.3121C9.89125 40.6355 10.0465 40.9416 10.2955 41.1033L14.1962 43.6912C14.2569 43.7352 14.3273 43.7586 14.3992 43.7586C14.471 43.7586 14.5414 43.7352 14.6021 43.6912C14.6641 43.6523 14.7156 43.595 14.7513 43.5252C14.787 43.4554 14.8055 43.3758 14.8048 43.295V31.5055C14.8048 31.182 14.6485 30.8759 14.3984 30.7136L7.80023 26.3106C7.68927 26.2425 7.5676 26.2003 7.44229 26.1865L7.37814 26.1871ZM61.6439 26.3168C61.5076 26.3168 61.3723 26.3575 61.2472 26.439L54.6318 30.8401C54.3822 31.0018 54.2275 31.308 54.2275 31.632V40.4207C54.2275 40.7441 54.3822 41.0503 54.6318 41.212L61.1998 45.5243C61.318 45.6037 61.4527 45.6455 61.5898 45.6455C61.7269 45.6455 61.8615 45.6037 61.9798 45.5243L65.9581 42.9734C66.0199 42.9345 66.0714 42.8771 66.107 42.8073C66.1426 42.7375 66.161 42.658 66.1602 42.5772C66.1608 42.4966 66.1423 42.4173 66.1067 42.3478C66.0711 42.2783 66.0197 42.221 65.9581 42.1822L59.313 37.7779C59.2526 37.7373 59.2023 37.6796 59.1669 37.6103C59.1315 37.5411 59.1122 37.4625 59.1109 37.3823V34.6321C59.1101 34.5515 59.1285 34.4721 59.1641 34.4025C59.1997 34.3329 59.2512 34.2758 59.313 34.2371L61.3884 32.8707C61.4492 32.8267 61.5195 32.8034 61.5914 32.8034C61.6632 32.8034 61.7336 32.8267 61.7943 32.8707L63.8676 34.2365C63.9282 34.277 63.9788 34.3346 64.0145 34.4039C64.0502 34.4732 64.0698 34.5517 64.0714 34.6321V36.7892C64.0714 36.9515 64.149 37.1132 64.2735 37.1848C64.3343 37.2289 64.4048 37.2524 64.4767 37.2524C64.5487 37.2524 64.6192 37.2289 64.6799 37.1848L68.6103 34.5433C68.7308 34.4627 68.8304 34.347 68.899 34.2078C68.9676 34.0687 69.0026 33.9112 69.0005 33.7514V31.6128C69.0005 31.2894 68.8442 30.9852 68.6103 30.8228L62.0423 26.4383C61.9212 26.3589 61.7841 26.3168 61.6445 26.3161L61.6439 26.3168ZM43.5331 32.8799C43.5681 32.8799 43.6037 32.8892 43.6355 32.9077L45.8963 34.4173C45.9588 34.4531 45.9907 34.542 45.9907 34.6142V37.6335C45.9907 37.7236 45.9588 37.7964 45.8963 37.8322L43.6349 39.3419C43.6032 39.3596 43.5684 39.3688 43.5331 39.3688C43.4978 39.3688 43.4629 39.3596 43.4312 39.3419L41.1698 37.8322C41.1073 37.7964 41.0755 37.7057 41.0755 37.6335V34.6142C41.0755 34.5241 41.1078 34.4531 41.1698 34.4167L43.4312 32.9077C43.463 32.8895 43.4975 32.88 43.5331 32.8799Z" fill="white"/>
<path d="M25.8653 26.4731C25.7442 26.3936 25.607 26.3518 25.4675 26.3518C25.3279 26.3518 25.1907 26.3936 25.0696 26.4731L18.5017 30.8409C18.3812 30.9212 18.2815 31.0367 18.2129 31.1756C18.1443 31.3146 18.1093 31.472 18.1114 31.6315V40.3839C18.1114 40.7079 18.2677 41.0134 18.5017 41.1751L25.0696 45.5423C25.1907 45.6218 25.3279 45.6636 25.4675 45.6636C25.607 45.6636 25.7442 45.6218 25.8653 45.5423L32.4327 41.1751C32.6823 41.0134 32.823 40.7079 32.823 40.3839V31.6315C32.823 31.3081 32.6666 31.002 32.4327 30.8409L25.8653 26.4731Z" fill="url(#paint0_linear_147_97)"/>
<path d="M32.4483 30.8409L25.8497 26.473C25.7849 26.4355 25.717 26.4055 25.647 26.3835L18.2521 40.959C18.3146 41.0492 18.3923 41.1207 18.4704 41.1751L25.0696 45.5423C25.2567 45.6682 25.475 45.704 25.6777 45.6318L32.6203 31.0026C32.5746 30.9342 32.5158 30.8789 32.4483 30.8409Z" fill="url(#paint1_linear_147_97)"/>
<path d="M32.4483 41.1743C32.6359 41.0484 32.7761 40.833 32.8386 40.5991L25.6152 26.3649C25.4287 26.3291 25.2254 26.347 25.054 26.4729L18.5017 30.8222L25.5688 45.6674C25.6621 45.6495 25.7715 45.6137 25.8653 45.5594L32.4483 41.1743Z" fill="url(#paint2_linear_147_97)"/>
</g>
<defs>
<linearGradient id="paint0_linear_147_97" x1="28.142" y1="29.7255" x2="20.7302" y2="42.8495" gradientUnits="userSpaceOnUse">
<stop stop-color="#3F873F"/>
<stop offset="0.33" stop-color="#3F8B3D"/>
<stop offset="0.637" stop-color="#3E9638"/>
<stop offset="0.934" stop-color="#3DA92E"/>
<stop offset="1" stop-color="#3DAE2B"/>
</linearGradient>
<linearGradient id="paint1_linear_147_97" x1="24.4694" y1="37.0297" x2="42.7209" y2="25.3239" gradientUnits="userSpaceOnUse">
<stop offset="0.138" stop-color="#3F873F"/>
<stop offset="0.402" stop-color="#52A044"/>
<stop offset="0.713" stop-color="#64B749"/>
<stop offset="0.908" stop-color="#6ABF4B"/>
</linearGradient>
<linearGradient id="paint2_linear_147_97" x1="17.8712" y1="36.0045" x2="33.0686" y2="36.0045" gradientUnits="userSpaceOnUse">
<stop offset="0.092" stop-color="#6ABF4B"/>
<stop offset="0.287" stop-color="#64B749"/>
<stop offset="0.598" stop-color="#52A044"/>
<stop offset="0.862" stop-color="#3F873F"/>
</linearGradient>
<clipPath id="clip0_147_97">
<rect width="69" height="79" fill="white"/>
</clipPath>
</defs>
</svg>
