<svg width="62" height="62" viewBox="0 0 62 62" fill="none" xmlns="http://www.w3.org/2000/svg">
<g clip-path="url(#clip0_147_157)">
<path d="M30.7375 0.0175781C15.036 0.0175781 16.0164 6.85338 16.0164 6.85338L16.0338 13.9355H31.0174V16.0617H10.0825C10.0825 16.0617 0.0351257 14.9178 0.0351257 30.8226C0.0351257 46.7279 8.80474 46.1638 8.80474 46.1638H14.0384V38.7831C14.0384 38.7831 13.7563 29.9791 22.668 29.9791H37.5291C37.5291 29.9791 45.8786 30.1146 45.8786 21.878V8.25944C45.8786 8.25944 47.1466 0.0175781 30.7375 0.0175781ZM22.4755 4.78015C22.8296 4.77983 23.1802 4.84961 23.5074 4.98549C23.8346 5.12137 24.1319 5.32069 24.3822 5.57204C24.6326 5.82339 24.8312 6.12184 24.9665 6.4503C25.1019 6.77877 25.1714 7.13081 25.171 7.48627C25.1714 7.84173 25.1019 8.19377 24.9665 8.52223C24.8312 8.8507 24.6326 9.14915 24.3822 9.40049C24.1319 9.65184 23.8346 9.85116 23.5074 9.98705C23.1802 10.1229 22.8296 10.1927 22.4755 10.1924C22.1214 10.1927 21.7708 10.1229 21.4436 9.98705C21.1164 9.85116 20.8191 9.65184 20.5687 9.40049C20.3184 9.14915 20.1198 8.8507 19.9845 8.52223C19.8491 8.19377 19.7796 7.84173 19.7799 7.48627C19.7796 7.13081 19.8491 6.77877 19.9845 6.4503C20.1198 6.12184 20.3184 5.82339 20.5687 5.57204C20.8191 5.32069 21.1164 5.12137 21.4436 4.98549C21.7708 4.84961 22.1214 4.77983 22.4755 4.78015Z" fill="url(#paint0_linear_147_157)"/>
<path d="M31.1833 61.7874C46.8848 61.7874 45.9044 54.9516 45.9044 54.9516L45.887 47.8697H30.9031V45.7435H51.838C51.838 45.7435 61.8854 46.8874 61.8854 30.9821C61.8854 15.0771 53.1158 15.6411 53.1158 15.6411H47.8822V23.0216C47.8822 23.0216 48.1643 31.8256 39.2525 31.8256H24.3914C24.3914 31.8256 16.042 31.6901 16.042 39.9269V53.5458C16.042 53.5458 14.7741 61.7874 31.1831 61.7874M39.4451 57.0253C39.091 57.0256 38.7403 56.9558 38.4131 56.82C38.086 56.6841 37.7887 56.4847 37.5383 56.2334C37.2879 55.982 37.0894 55.6836 36.9541 55.3551C36.8187 55.0267 36.7492 54.6746 36.7495 54.3192C36.7492 53.9637 36.8186 53.6116 36.954 53.2831C37.0893 52.9546 37.2879 52.6562 37.5382 52.4048C37.7886 52.1534 38.0859 51.9541 38.4131 51.8182C38.7403 51.6823 39.091 51.6125 39.4451 51.6128C39.7991 51.6125 40.1498 51.6823 40.477 51.8181C40.8042 51.954 41.1014 52.1534 41.3518 52.4047C41.6022 52.6561 41.8007 52.9545 41.9361 53.283C42.0714 53.6114 42.1409 53.9635 42.1406 54.3189C42.1409 54.6744 42.0714 55.0264 41.9361 55.3549C41.8007 55.6834 41.6022 55.9818 41.3518 56.2332C41.1014 56.4845 40.8042 56.6838 40.477 56.8197C40.1498 56.9556 39.7991 57.0256 39.4451 57.0253Z" fill="url(#paint1_linear_147_157)"/>
</g>
<defs>
<linearGradient id="paint0_linear_147_157" x1="594.415" y1="555.602" x2="3671.4" y2="3590" gradientUnits="userSpaceOnUse">
<stop stop-color="#387EB8"/>
<stop offset="1" stop-color="#366994"/>
</linearGradient>
<linearGradient id="paint1_linear_147_157" x1="893.347" y1="965.333" x2="4197.08" y2="4076.26" gradientUnits="userSpaceOnUse">
<stop stop-color="#FFE052"/>
<stop offset="1" stop-color="#FFC331"/>
</linearGradient>
<clipPath id="clip0_147_157">
<rect width="62" height="62" fill="white"/>
</clipPath>
</defs>
</svg>
