<svg width="33" height="33" viewBox="0 0 33 33" fill="none" xmlns="http://www.w3.org/2000/svg">
<path d="M28.1133 26.22L23.58 21.7C25.0427 19.8366 25.8363 17.5355 25.8333 15.1667C25.8333 13.057 25.2078 10.9947 24.0357 9.24059C22.8636 7.48646 21.1977 6.11929 19.2486 5.31196C17.2996 4.50462 15.1548 4.29339 13.0857 4.70496C11.0166 5.11654 9.11596 6.13244 7.6242 7.6242C6.13244 9.11596 5.11654 11.0166 4.70496 13.0857C4.29339 15.1548 4.50462 17.2996 5.31196 19.2486C6.11929 21.1977 7.48646 22.8636 9.24059 24.0357C10.9947 25.2078 13.057 25.8333 15.1667 25.8333C17.5355 25.8363 19.8366 25.0427 21.7 23.58L26.22 28.1133C26.344 28.2383 26.4914 28.3375 26.6539 28.4052C26.8164 28.4729 26.9907 28.5077 27.1667 28.5077C27.3427 28.5077 27.517 28.4729 27.6794 28.4052C27.8419 28.3375 27.9894 28.2383 28.1133 28.1133C28.2383 27.9894 28.3375 27.8419 28.4052 27.6794C28.4729 27.517 28.5077 27.3427 28.5077 27.1667C28.5077 26.9907 28.4729 26.8164 28.4052 26.6539C28.3375 26.4914 28.2383 26.344 28.1133 26.22ZM7.16667 15.1667C7.16667 13.5844 7.63586 12.0377 8.51491 10.7221C9.39397 9.40652 10.6434 8.38114 12.1052 7.77564C13.567 7.17013 15.1755 7.01171 16.7274 7.32039C18.2792 7.62907 19.7047 8.391 20.8235 9.50982C21.9423 10.6286 22.7043 12.0541 23.013 13.606C23.3216 15.1578 23.1632 16.7663 22.5577 18.2281C21.9522 19.6899 20.9268 20.9394 19.6112 21.8184C18.2956 22.6975 16.7489 23.1667 15.1667 23.1667C13.0449 23.1667 11.0101 22.3238 9.50982 20.8235C8.00953 19.3232 7.16667 17.2884 7.16667 15.1667Z" fill="black"/>
</svg>
