<svg width="33" height="34" viewBox="0 0 33 34" fill="none" xmlns="http://www.w3.org/2000/svg">
<path d="M24.9076 21.7294C25.9937 21.7287 27.0499 22.0848 27.9137 22.743C28.7776 23.4012 29.4013 24.325 29.6887 25.3724C29.9762 26.4197 29.9116 27.5324 29.5048 28.5394C29.098 29.5464 28.3716 30.3919 27.4374 30.9457C26.5031 31.4995 25.4128 31.7309 24.3341 31.6045C23.2555 31.478 22.2482 31.0006 21.4674 30.2457C20.6866 29.4908 20.1755 28.5003 20.0127 27.4265C19.8499 26.3527 20.0444 25.2552 20.5664 24.3028L11.9965 19.8342C11.366 20.6446 10.4991 21.2389 9.51584 21.5347C8.53261 21.8306 7.48172 21.8133 6.50873 21.4854C5.53573 21.1575 4.68879 20.5351 4.08521 19.7044C3.48164 18.8738 3.1513 17.876 3.13995 16.8493C3.1286 15.8226 3.43681 14.8178 4.02189 13.974C4.60696 13.1303 5.43994 12.4893 6.40545 12.14C7.37096 11.7906 8.42121 11.7501 9.41074 12.0242C10.4003 12.2982 11.2801 12.8732 11.9283 13.6694L20.3637 9.28371C19.8602 8.12633 19.8158 6.82071 20.2396 5.63182C20.6635 4.44293 21.5238 3.45983 22.6459 2.882C23.7681 2.30418 25.068 2.17493 26.282 2.52047C27.4959 2.86602 28.533 3.66048 29.1826 4.74264C29.8323 5.82479 30.0459 7.11357 29.7801 8.34745C29.5143 9.58133 28.789 10.6679 27.7514 11.3866C26.7139 12.1053 25.4417 12.4023 24.1932 12.2174C22.9446 12.0325 21.8131 11.3795 21.0284 10.391L12.6079 14.7689C12.8872 15.3893 13.0353 16.0607 13.043 16.741C13.0507 17.4214 12.9178 18.096 12.6527 18.7225L21.3404 23.2526C21.8013 22.7709 22.355 22.3877 22.9681 22.1259C23.5812 21.8641 24.241 21.7292 24.9076 21.7294Z" fill="black"/>
</svg>
