<svg width="50" height="50" viewBox="0 0 50 50" fill="none" xmlns="http://www.w3.org/2000/svg">
<path d="M25 0C18.3719 0.00741107 12.0173 2.64371 7.33052 7.33052C2.64371 12.0173 0.00741107 18.3719 0 25C0.0111054 31.627 2.64859 37.9794 7.3346 42.6654C12.0206 47.3514 18.373 49.9889 25 50C31.6304 50 37.9893 47.3661 42.6777 42.6777C47.3661 37.9893 50 31.6304 50 25C50 18.3696 47.3661 12.0107 42.6777 7.32233C37.9893 2.63392 31.6304 0 25 0ZM40.206 39.426C38.802 36.594 36.6344 34.2108 33.9479 32.5451C31.2615 30.8795 28.163 29.9978 25.002 29.9994C21.8411 30.0011 18.7435 30.8861 16.0588 32.5545C13.3741 34.223 11.2091 36.6085 9.808 39.442C6.06983 35.565 3.98688 30.3856 4 25C4 19.4305 6.21249 14.089 10.1508 10.1508C14.089 6.21249 19.4305 4 25 4C30.5695 4 35.911 6.21249 39.8492 10.1508C43.7875 14.089 46 19.4305 46 25C46.0125 30.3781 43.935 35.5507 40.206 39.426ZM25 10C23.22 10 21.4799 10.5278 19.9999 11.5168C18.5198 12.5057 17.3663 13.9113 16.6851 15.5558C16.0039 17.2004 15.8257 19.01 16.1729 20.7558C16.5202 22.5016 17.3774 24.1053 18.636 25.364C19.8947 26.6226 21.4984 27.4798 23.2442 27.8271C24.99 28.1743 26.7996 27.9961 28.4441 27.3149C30.0887 26.6337 31.4943 25.4802 32.4832 24.0001C33.4722 22.5201 34 20.78 34 19C34 17.8181 33.7672 16.6478 33.3149 15.5558C32.8626 14.4639 32.1997 13.4718 31.364 12.636C30.5282 11.8003 29.5361 11.1374 28.4441 10.6851C27.3522 10.2328 26.1819 10 25 10Z" fill="black"/>
</svg>
