<svg width="37" height="38" viewBox="0 0 37 38" fill="none" xmlns="http://www.w3.org/2000/svg">
<g clip-path="url(#clip0_74_1165)">
<path fill-rule="evenodd" clip-rule="evenodd" d="M30.3219 21.3646H26.5026C25.9565 21.3646 25.5931 21.0006 25.5931 20.4551C25.5931 19.9097 25.9571 19.5456 26.5026 19.5456H30.3219C31.2308 19.5456 32.1403 19.3642 33.0498 19.1816C33.5952 19.0002 33.9593 18.8182 34.3227 18.6362C34.6867 18.4547 34.8688 17.9087 34.8688 17.5453C34.8688 17.1812 34.6867 16.8172 34.5047 16.4538C33.5952 15.3629 31.9583 14.6354 29.7759 13.9079C29.5939 13.9079 29.5939 13.7259 29.4119 13.7259C28.8664 13.3619 28.503 12.8164 28.321 12.271C28.321 11.5429 28.685 10.9975 29.2304 10.634C30.5034 8.81505 31.2308 7.1787 31.0494 5.72317C30.8674 4.81428 30.5034 4.08681 29.7759 3.54077C28.503 2.63128 26.6846 2.63128 25.5925 3.54077C24.8656 4.08681 24.5016 4.81428 24.3196 5.72317C24.1382 7.1781 24.8656 8.81505 26.1386 10.634C26.5026 10.9981 26.3206 11.5435 25.9565 11.9069C25.5925 12.271 25.0471 12.089 24.6836 11.7255C22.8646 9.54252 22.1372 7.36012 22.5012 5.35973C22.6832 4.08681 23.4107 2.8133 24.5016 2.08583C26.3206 0.630895 29.049 0.630895 30.8674 2.08583C31.9583 2.99531 32.6858 4.08681 32.8678 5.35973C33.0498 7.36012 32.3223 9.54312 30.6854 11.7255C30.5034 11.9069 30.5034 12.089 30.3213 12.089C30.3213 12.089 30.5034 12.089 30.5034 12.271C32.8678 12.9984 34.6867 14.0893 35.7776 15.3623C36.3237 15.9083 36.6871 16.8178 36.6871 17.7273C36.6872 18.2213 36.5721 18.7086 36.3512 19.1505C36.1303 19.5923 35.8095 19.9767 35.4142 20.2731C34.8688 20.6371 34.3227 21.0012 33.5952 21.1826C32.5043 21.1826 31.4128 21.3646 30.3219 21.3646Z" fill="#9747FF"/>
<path fill-rule="evenodd" clip-rule="evenodd" d="M10.4971 21.3644H6.67769C5.40478 21.3644 4.31387 21.1824 3.40439 20.8189C2.67632 20.6369 2.13087 20.2729 1.58542 19.9095C0.857952 19.364 0.3125 18.2725 0.3125 17.363C0.3125 16.4535 0.676532 15.7261 1.22198 14.9986C2.4949 13.7257 4.31327 12.8162 6.67769 12.0887C6.67769 12.0887 6.85971 12.0887 6.85971 11.9067C6.85971 11.9067 6.67769 11.7253 6.67769 11.5427C4.85932 9.36148 3.95044 6.99706 4.31447 5.17809C4.49589 3.90517 5.22336 2.63166 6.31486 1.90419C8.13382 0.449254 10.8617 0.449254 12.6806 1.90419C13.7716 2.81367 14.499 3.90517 14.681 5.17809C14.8631 7.17848 14.1356 9.36148 12.4986 11.5439C12.1346 11.9079 11.5891 11.9079 11.2257 11.7259C10.8617 11.3619 10.6797 10.8164 11.0437 10.4524C12.4986 8.63401 13.0441 6.81504 12.8621 5.54213C12.8621 4.63264 12.3166 3.90517 11.5891 3.35913C10.3162 2.45024 8.67928 2.45024 7.40576 3.35913C6.67829 3.90517 6.13284 4.63264 6.13284 5.36011C5.95082 6.81504 6.67829 8.4514 7.95181 10.2704C8.31584 10.8164 8.86129 11.3619 8.67928 11.9073C8.67928 12.6354 8.13382 12.9988 7.58778 13.3623C7.58778 13.3623 7.40636 13.5443 7.22374 13.5443C5.22336 14.4538 3.76842 15.1812 2.67752 16.2727C2.4955 16.6368 2.31348 17.0002 2.31348 17.3636C2.31348 17.9091 2.4955 18.2731 2.85894 18.4551C3.22297 18.6365 3.587 18.8192 4.13245 19.0006C4.85992 19.3646 5.7694 19.546 6.67829 19.546H10.4976C11.0437 19.546 11.4071 19.9101 11.4071 20.4555C11.4071 21.001 11.0431 21.365 10.4976 21.365L10.4971 21.3644Z" fill="#9747FF"/>
<path fill-rule="evenodd" clip-rule="evenodd" d="M22.3192 37.1873H14.8625C13.2255 37.1873 11.7706 37.0053 10.4971 36.4598C9.5882 36.0958 8.86073 35.7323 8.31469 35.1869C7.22378 34.6414 6.67773 33.3679 6.67773 32.095C6.67773 31.0035 7.04177 30.094 7.76923 29.1851C9.22417 27.5482 11.5886 26.2747 14.8625 25.1838L15.4079 24.6383L14.8625 24.0923C12.4981 21.001 11.4072 18.2725 11.7706 15.7261C12.1346 14.0891 12.8615 12.6348 14.3164 11.5427C16.6809 9.90634 20.3188 9.90634 22.5012 11.5427C23.9561 12.6348 24.8656 14.0891 25.047 15.7261C25.4111 18.2725 24.3196 21.1824 22.1372 24.0929C21.5917 24.6383 21.5917 24.8197 21.5917 24.8197C21.5917 24.8197 21.9558 25.0017 22.1372 25.1838C25.4111 26.2747 27.7755 27.5482 29.2304 29.1851C29.9579 29.9126 30.3219 31.0035 30.3219 32.095C30.3219 33.3679 29.7759 34.6414 28.8664 35.3689C28.3209 35.9144 27.5935 36.2778 26.684 36.6418C25.2291 37.0059 23.7741 37.1873 22.3192 37.1873ZM18.4998 11.9067C17.4083 11.9067 16.3174 12.2708 15.4079 12.8162C14.3164 13.5443 13.771 14.6352 13.589 15.9081C13.4076 17.9085 14.317 20.2729 16.1354 22.8193C16.6809 23.3648 17.2269 23.9108 17.0449 24.8197C17.0449 25.5478 16.3168 26.0932 15.772 26.6387C15.772 26.6387 15.59 26.8207 15.4079 26.8207C12.3167 27.7302 10.3157 29.0031 8.86073 30.458C8.67872 30.8221 8.4967 31.5495 8.4967 32.095C8.4967 32.8225 8.86073 33.5499 9.40619 33.9134C9.77022 34.2774 10.4971 34.6414 11.2252 34.8229C12.3161 35.1869 13.589 35.3689 14.8625 35.3689H22.3192C23.5921 35.3689 24.8656 35.1869 25.9565 34.8229C26.6846 34.6414 27.23 34.2774 27.7755 33.9134C28.3209 33.5499 28.685 32.8225 28.685 32.095C28.685 31.5495 28.503 30.8221 27.9569 30.458C26.684 29.0031 24.5016 27.9116 21.4103 26.8207C21.2277 26.8207 21.2277 26.6387 21.0463 26.6387C20.5002 26.0932 19.7728 25.5472 19.7728 24.8197C19.7728 24.0923 20.3188 23.3648 20.8643 22.8193C22.6832 20.4549 23.5921 17.9085 23.4107 15.9081C23.2287 14.6352 22.6826 13.7257 21.5917 12.8168C20.6822 12.2708 19.5913 11.9067 18.4998 11.9067Z" fill="#9747FF"/>
</g>
<defs>
<clipPath id="clip0_74_1165">
<rect width="37" height="37" fill="white" transform="translate(0 0.5)"/>
</clipPath>
</defs>
</svg>
