<svg width="95" height="87" viewBox="0 0 95 87" fill="none" xmlns="http://www.w3.org/2000/svg">
<path d="M47.5002 25.8745C40.0295 25.8826 32.8672 28.7602 27.5846 33.876C22.302 38.9917 19.3306 45.9279 19.3223 53.1627C19.3348 60.3962 22.3075 67.33 27.5892 72.4449C32.8709 77.5598 40.0308 80.4387 47.5002 80.4508C54.9735 80.4508 62.1407 77.5758 67.4251 72.4583C72.7095 67.3408 75.6782 60.3999 75.6782 53.1627C75.6782 45.9254 72.7095 38.9845 67.4251 33.867C62.1407 28.7495 54.9735 25.8745 47.5002 25.8745ZM64.6392 68.909C63.0567 65.8178 60.6136 63.2164 57.5856 61.3983C54.5576 59.5803 51.0653 58.6178 47.5025 58.6196C43.9398 58.6215 40.4485 59.5874 37.4225 61.4086C34.3965 63.2298 31.9562 65.8337 30.377 68.9265C26.1637 64.6946 23.816 59.0412 23.8307 53.1627C23.8307 47.0833 26.3245 41.253 30.7634 36.9543C35.2023 32.6556 41.2227 30.2406 47.5002 30.2406C53.7778 30.2406 59.7982 32.6556 64.2371 36.9543C68.676 41.253 71.1697 47.0833 71.1697 53.1627C71.1838 59.033 68.8422 64.679 64.6392 68.909ZM47.5002 36.7898C45.4939 36.7898 43.5327 37.3659 41.8645 38.4454C40.1963 39.5248 38.8961 41.0591 38.1283 42.8541C37.3606 44.6492 37.1597 46.6244 37.5511 48.53C37.9425 50.4356 38.9086 52.186 40.3273 53.5599C41.746 54.9338 43.5535 55.8694 45.5212 56.2485C47.489 56.6275 49.5286 56.433 51.3822 55.6894C53.2358 54.9459 54.8201 53.6868 55.9347 52.0713C57.0494 50.4558 57.6443 48.5564 57.6443 46.6135C57.6443 45.3234 57.3819 44.046 56.8721 42.8541C56.3623 41.6622 55.6151 40.5793 54.6732 39.6671C53.7312 38.7549 52.6129 38.0312 51.3822 37.5376C50.1515 37.0439 48.8324 36.7898 47.5002 36.7898Z" fill="black"/>
</svg>
