<svg width="48" height="48" viewBox="0 0 48 48" fill="none" xmlns="http://www.w3.org/2000/svg">
<path d="M37.2377 33.8249H35.2502V34.678C35.8641 34.7323 36.4654 34.8842 37.0314 35.128C37.1441 34.7017 37.2132 34.2651 37.2377 33.8249ZM35.2502 37.7718C35.8833 37.3246 36.385 36.716 36.7033 36.0093C36.2424 35.803 35.7521 35.6702 35.2502 35.6155V37.7718ZM32.7283 29.1374C32.3238 29.3389 31.9485 29.5943 31.6127 29.8968C31.7449 30.0194 31.8859 30.1322 32.0346 30.2343C32.2257 29.8447 32.4583 29.477 32.7283 29.1374ZM37.0314 31.5843C36.4654 31.8281 35.8641 31.98 35.2502 32.0343V32.8874H37.2377C37.2147 32.447 37.1455 32.0103 37.0314 31.5843ZM36.8346 37.5655C37.2343 37.3694 37.6037 37.1168 37.9314 36.8155C37.8005 36.6952 37.6628 36.5825 37.5189 36.478C37.3332 36.8655 37.1036 37.2304 36.8346 37.5655ZM37.8752 31.1249C38.0488 31.6978 38.1527 32.2896 38.1846 32.8874H39.4502C39.3663 32.057 39.062 31.264 38.5689 30.5905C38.3482 30.7819 38.1165 30.9603 37.8752 31.1249ZM31.6877 31.1343C31.4425 30.975 31.2105 30.7963 30.9939 30.5999C30.5039 31.2706 30.2028 32.0606 30.1221 32.8874H31.3877C31.4127 32.2926 31.5135 31.7035 31.6877 31.1343ZM37.8752 35.578C38.1174 35.7374 38.3462 35.9161 38.5596 36.1124C39.0565 35.441 39.3612 34.647 39.4408 33.8155H38.1752C38.151 34.4134 38.0501 35.0058 37.8752 35.578ZM35.2502 28.9312V31.0874C35.7532 31.0384 36.2444 30.9053 36.7033 30.6937C36.385 29.9869 35.8833 29.3783 35.2502 28.9312ZM37.9314 29.8874C37.6037 29.5861 37.2343 29.3335 36.8346 29.1374C37.1036 29.4725 37.3332 29.8374 37.5189 30.2249C37.6646 30.1228 37.8025 30.01 37.9314 29.8874ZM32.3252 32.8874H34.3127V32.0343C33.6985 31.9877 33.0965 31.8388 32.5314 31.5937C32.4173 32.0164 32.3482 32.4501 32.3252 32.8874ZM32.5314 35.1187C33.0965 34.8735 33.6985 34.7246 34.3127 34.678V33.8249H32.3252C32.3497 34.262 32.4188 34.6956 32.5314 35.1187ZM31.3877 33.8249H30.1221C30.2028 34.6517 30.5039 35.4417 30.9939 36.1124C31.2105 35.916 31.4425 35.7373 31.6877 35.578C31.5143 35.0086 31.4135 34.4196 31.3877 33.8249ZM32.8502 30.703C33.3129 30.9117 33.8072 31.0416 34.3127 31.0874V28.9312C33.679 29.3841 33.1748 29.9949 32.8502 30.703ZM31.6127 36.8062C31.9452 37.1128 32.3211 37.3686 32.7283 37.5655C32.4542 37.2289 32.2213 36.8606 32.0346 36.4687C31.8939 36.5718 31.7533 36.6843 31.6127 36.8062Z" fill="#CE8A07"/>
<path d="M39.2905 28.0877H39.2624V28.0596C38.0129 27.0006 36.4283 26.4193 34.7905 26.4189C34.4392 26.4206 34.0884 26.4457 33.7405 26.4939C32.0851 26.7454 30.5765 27.587 29.4929 28.8634C28.4092 30.1398 27.8237 31.765 27.8443 33.4393C27.8648 35.1135 28.4901 36.7238 29.6047 37.9733C30.7194 39.2227 32.2482 40.027 33.9092 40.2377C34.1983 40.2754 34.4896 40.2942 34.7811 40.2939C36.199 40.2944 37.5831 39.8602 38.7466 39.0499C39.9102 38.2396 40.7975 37.0921 41.2889 35.762C41.7802 34.432 41.8521 32.9832 41.4948 31.6111C41.1375 30.2389 40.3682 29.0092 39.2905 28.0877ZM34.7811 38.9814C33.6686 38.9814 32.5811 38.6515 31.656 38.0335C30.731 37.4154 30.01 36.5369 29.5843 35.509C29.1585 34.4812 29.0472 33.3502 29.2642 32.2591C29.4812 31.1679 30.017 30.1656 30.8036 29.379C31.5903 28.5923 32.5926 28.0566 33.6837 27.8395C34.7749 27.6225 35.9059 27.7339 36.9337 28.1596C37.9615 28.5854 38.84 29.3063 39.4581 30.2314C40.0762 31.1564 40.4061 32.2439 40.4061 33.3564C40.4049 34.8479 39.8119 36.278 38.7573 37.3326C37.7026 38.3872 36.2726 38.9803 34.7811 38.9814Z" fill="#CE8A07"/>
<path d="M39.2905 28.6395H39.2624V28.6113C38.0129 27.5524 36.4283 26.971 34.7905 26.9707C34.4392 26.9724 34.0884 26.9974 33.7405 27.0457C32.0851 27.2972 30.5765 28.1387 29.4929 29.4151C28.4092 30.6916 27.8237 32.3168 27.8443 33.991C27.8648 35.6652 28.4901 37.2756 29.6047 38.525C30.7194 39.7745 32.2482 40.5787 33.9092 40.7895C34.1983 40.8272 34.4896 40.8459 34.7811 40.8457C36.199 40.8462 37.5831 40.412 38.7466 39.6017C39.9102 38.7914 40.7975 37.6439 41.2889 36.3138C41.7802 34.9837 41.8521 33.535 41.4948 32.1628C41.1375 30.7906 40.3682 29.561 39.2905 28.6395ZM34.7811 39.5332C33.6686 39.5332 32.5811 39.2033 31.656 38.5852C30.731 37.9671 30.01 37.0886 29.5843 36.0608C29.1585 35.033 29.0472 33.902 29.2642 32.8108C29.4812 31.7197 30.017 30.7174 30.8036 29.9307C31.5903 29.1441 32.5926 28.6083 33.6837 28.3913C34.7749 28.1742 35.9059 28.2856 36.9337 28.7114C37.9615 29.1371 38.84 29.8581 39.4581 30.7831C40.0762 31.7081 40.4061 32.7957 40.4061 33.9082C40.4049 35.3997 39.8119 36.8297 38.7573 37.8844C37.7026 38.939 36.2726 39.532 34.7811 39.5332Z" fill="#CE8A07"/>
<path d="M34.3125 37.7718V35.6155C33.8072 35.6625 33.3131 35.7923 32.85 35.9999C33.1746 36.708 33.6788 37.3188 34.3125 37.7718ZM29.5406 15.2718C29.7444 15.3491 29.9602 15.3904 30.1781 15.3937C30.412 15.3937 30.6437 15.3476 30.8598 15.2581C31.0759 15.1685 31.2723 15.0373 31.4377 14.8719C31.6031 14.7065 31.7343 14.5102 31.8238 14.2941C31.9133 14.0779 31.9594 13.8463 31.9594 13.6124C31.9594 13.3785 31.9133 13.1469 31.8238 12.9307C31.7343 12.7146 31.6031 12.5183 31.4377 12.3529C31.2723 12.1875 31.0759 12.0563 30.8598 11.9667C30.6437 11.8772 30.412 11.8312 30.1781 11.8312C29.772 11.8297 29.3778 11.9689 29.0625 12.2249C29.4101 12.9606 29.5894 13.7644 29.5875 14.578C29.5856 14.81 29.5699 15.0417 29.5406 15.2718ZM22.1625 12.3749C22.4072 11.7844 22.5223 11.1481 22.5 10.5093H22.5375C22.5281 10.4624 22.5094 10.4249 22.5 10.378C21.6455 10.6847 20.9049 11.2448 20.3772 11.9836C19.8495 12.7224 19.5598 13.6046 19.5469 14.5124C20.8125 14.1937 21.6937 13.4718 22.1625 12.3749ZM19.6688 15.628C19.8791 16.4899 20.3416 17.2695 20.9972 17.8671C21.6528 18.4647 22.4718 18.8533 23.3494 18.9831C24.227 19.113 25.1233 18.9781 25.9239 18.5959C26.7245 18.2137 27.3929 17.6015 27.8438 16.8374C26.1 16.1624 24.6281 14.803 23.5594 12.8812L23.3344 12.4593C23.2969 12.5718 23.25 12.6937 23.2031 12.8155C22.7531 13.8562 21.7875 15.1593 19.6688 15.628ZM28.2844 15.7968C28.4782 15.1329 28.5145 14.4329 28.3902 13.7525C28.266 13.0721 27.9846 12.4301 27.5686 11.8775C27.1526 11.325 26.6134 10.8771 25.9939 10.5696C25.3744 10.2621 24.6916 10.1034 24 10.1062C23.8687 10.1062 23.7375 10.1155 23.6063 10.1249C24.0094 11.4468 25.2938 14.6624 28.2844 15.7968ZM39.1875 14.6155C39.8717 14.6155 40.5405 14.4126 41.1094 14.0325C41.6783 13.6524 42.1217 13.1121 42.3835 12.48C42.6454 11.8479 42.7139 11.1523 42.5804 10.4813C42.4469 9.81021 42.1175 9.19381 41.6336 8.71001C41.1498 8.2262 40.5334 7.89673 39.8624 7.76325C39.1913 7.62977 38.4958 7.69828 37.8637 7.96011C37.2315 8.22194 36.6913 8.66534 36.3111 9.23423C35.931 9.80312 35.7281 10.472 35.7281 11.1562C35.7291 12.0733 36.0938 12.9527 36.7424 13.6013C37.3909 14.2498 38.2703 14.6146 39.1875 14.6155ZM15.75 22.3593V20.4093C15.7496 19.6466 15.4635 18.9116 14.9481 18.3494C14.4327 17.7872 13.7254 17.4384 12.9656 17.3718C12.4608 17.9845 11.8266 18.478 11.1086 18.8167C10.3905 19.1555 9.60643 19.3311 8.8125 19.3311C8.01857 19.3311 7.23448 19.1555 6.51644 18.8167C5.79841 18.478 5.16423 17.9845 4.65938 17.3718C3.8993 17.442 3.19272 17.7931 2.6778 18.3566C2.16287 18.9201 1.87662 19.6553 1.875 20.4187V26.953H14.0625V26.1468C14.0637 25.4326 14.2144 24.7266 14.5051 24.0743C14.7957 23.4219 15.2198 22.8377 15.75 22.3593ZM28.4062 28.078C29.5408 26.7708 31.066 25.8636 32.7562 25.4905C32.6115 24.6131 32.1743 23.8104 31.5156 23.213C30.8569 22.6156 30.0155 22.2585 29.1281 22.1999C28.5097 22.9641 27.7282 23.5804 26.841 24.0037C25.9537 24.4271 24.9831 24.6468 24 24.6468C23.0169 24.6468 22.0463 24.4271 21.159 24.0037C20.2718 23.5804 19.4903 22.9641 18.8719 22.1999C17.8726 22.2703 16.9371 22.7165 16.2535 23.4488C15.5699 24.1811 15.1891 25.145 15.1875 26.1468V34.453H26.5125C26.4636 34.0894 26.4385 33.723 26.4375 33.3562C26.4387 31.4174 27.1375 29.5439 28.4062 28.078ZM43.3406 17.3718C42.8358 17.9845 42.2016 18.478 41.4836 18.8167C40.7655 19.1555 39.9814 19.3311 39.1875 19.3311C38.3936 19.3311 37.6095 19.1555 36.8914 18.8167C36.1734 18.478 35.5392 17.9845 35.0344 17.3718C34.2751 17.4399 33.5687 17.7891 33.0536 18.351C32.5385 18.9129 32.2519 19.647 32.25 20.4093V22.3499C33.1161 23.1247 33.6889 24.1742 33.8719 25.3218C34.0781 25.303 34.2938 25.2937 34.5 25.2937C36.2667 25.2922 37.9842 25.8756 39.3844 26.953H46.125V20.4187C46.1234 19.6553 45.8371 18.9201 45.3222 18.3566C44.8073 17.7931 44.1007 17.442 43.3406 17.3718ZM8.8125 14.6155C9.4967 14.6155 10.1655 14.4126 10.7344 14.0325C11.3033 13.6524 11.7467 13.1121 12.0085 12.48C12.2704 11.8479 12.3389 11.1523 12.2054 10.4813C12.0719 9.81021 11.7424 9.19381 11.2586 8.71001C10.7748 8.2262 10.1584 7.89673 9.48739 7.76325C8.81634 7.62977 8.12077 7.69828 7.48865 7.96011C6.85654 8.22194 6.31626 8.66534 5.93613 9.23423C5.55601 9.80312 5.35312 10.472 5.35312 11.1562C5.35407 12.0733 5.71884 12.9527 6.36739 13.6013C7.01595 14.2498 7.89531 14.6146 8.8125 14.6155Z" fill="#CE8A07"/>
</svg>
