<svg width="45" height="46" viewBox="0 0 45 46" fill="none" xmlns="http://www.w3.org/2000/svg">
<path d="M34.9102 32.2109H33.0469V33.0107C33.6224 33.0616 34.1862 33.204 34.7168 33.4326C34.8224 33.033 34.8872 32.6237 34.9102 32.2109ZM33.0469 35.9111C33.6404 35.4919 34.1108 34.9213 34.4092 34.2588C33.9771 34.0654 33.5175 33.9409 33.0469 33.8896V35.9111ZM30.6826 27.8164C30.3034 28.0053 29.9515 28.2448 29.6367 28.5283C29.7607 28.6433 29.8929 28.749 30.0322 28.8447C30.2114 28.4795 30.4294 28.1348 30.6826 27.8164ZM34.7168 30.1104C34.1862 30.339 33.6224 30.4814 33.0469 30.5322V31.332H34.9102C34.8886 30.9192 34.8238 30.5097 34.7168 30.1104ZM34.5322 35.7178C34.9069 35.5339 35.2533 35.2971 35.5605 35.0146C35.4378 34.9018 35.3087 34.7962 35.1738 34.6982C34.9997 35.0615 34.7844 35.4036 34.5322 35.7178ZM35.5078 29.6797C35.6706 30.2168 35.768 30.7716 35.7979 31.332H36.9844C36.9057 30.5535 36.6205 29.8101 36.1582 29.1787C35.9512 29.3581 35.7341 29.5254 35.5078 29.6797ZM29.707 29.6885C29.4772 29.5392 29.2597 29.3716 29.0566 29.1875C28.5972 29.8163 28.3149 30.5569 28.2393 31.332H29.4258C29.4492 30.7744 29.5437 30.2221 29.707 29.6885ZM35.5078 33.8545C35.7349 34.0039 35.9494 34.1714 36.1494 34.3555C36.6153 33.7261 36.9009 32.9816 36.9756 32.2021H35.7891C35.7663 32.7627 35.6718 33.318 35.5078 33.8545ZM33.0469 27.623V29.6445C33.5184 29.5986 33.9789 29.4738 34.4092 29.2754C34.1108 28.6128 33.6404 28.0423 33.0469 27.623ZM35.5605 28.5195C35.2533 28.237 34.9069 28.0002 34.5322 27.8164C34.7844 28.1306 34.9997 28.4726 35.1738 28.8359C35.3104 28.7402 35.4397 28.6344 35.5605 28.5195ZM30.3047 31.332H32.168V30.5322C31.5922 30.4886 31.0278 30.349 30.498 30.1191C30.3911 30.5155 30.3263 30.9221 30.3047 31.332ZM30.498 33.4238C31.0278 33.194 31.5922 33.0544 32.168 33.0107V32.2109H30.3047C30.3277 32.6208 30.3925 33.0272 30.498 33.4238ZM29.4258 32.2109H28.2393C28.3149 32.986 28.5972 33.7266 29.0566 34.3555C29.2597 34.1713 29.4772 34.0038 29.707 33.8545C29.5445 33.3207 29.45 32.7684 29.4258 32.2109ZM30.7969 29.2842C31.2306 29.4798 31.6941 29.6016 32.168 29.6445V27.623C31.5739 28.0477 31.1012 28.6204 30.7969 29.2842ZM29.6367 35.0059C29.9484 35.2933 30.3009 35.5332 30.6826 35.7178C30.4256 35.4022 30.2072 35.0569 30.0322 34.6895C29.9004 34.7861 29.7686 34.8916 29.6367 35.0059Z" fill="#03517C"/>
<path d="M36.8348 26.832H36.8085V26.8057C35.6371 25.8129 34.1515 25.2679 32.6161 25.2676C32.2868 25.2691 31.9579 25.2926 31.6317 25.3379C30.0798 25.5736 28.6655 26.3626 27.6496 27.5592C26.6337 28.7559 26.0847 30.2795 26.104 31.8491C26.1233 33.4187 26.7095 34.9284 27.7544 36.0998C28.7994 37.2711 30.2327 38.0251 31.7899 38.2227C32.0609 38.258 32.334 38.2756 32.6073 38.2754C33.9366 38.2758 35.2341 37.8688 36.325 37.1091C37.4158 36.3495 38.2476 35.2737 38.7083 34.0267C39.169 32.7798 39.2363 31.4216 38.9014 30.1352C38.5664 28.8488 37.8451 27.6959 36.8348 26.832ZM32.6073 37.0449C31.5643 37.0449 30.5447 36.7356 29.6775 36.1562C28.8103 35.5767 28.1344 34.7531 27.7353 33.7895C27.3361 32.8259 27.2317 31.7656 27.4352 30.7427C27.6387 29.7197 28.1409 28.7801 28.8784 28.0426C29.6159 27.3051 30.5555 26.8029 31.5785 26.5994C32.6014 26.3959 33.6618 26.5003 34.6253 26.8995C35.5889 27.2986 36.4125 27.9745 36.992 28.8417C37.5714 29.7089 37.8807 30.7285 37.8807 31.7715C37.8796 33.1697 37.3237 34.5104 36.3349 35.4991C35.3462 36.4879 34.0056 37.0438 32.6073 37.0449Z" fill="#03517C"/>
<path d="M32.168 35.9111V33.8897C31.6943 33.9337 31.231 34.0554 30.7969 34.25C31.1012 34.9138 31.5739 35.4865 32.168 35.9111ZM27.6943 14.8174C27.8854 14.8899 28.0876 14.9286 28.292 14.9316C28.5113 14.9316 28.7284 14.8884 28.931 14.8045C29.1336 14.7206 29.3177 14.5976 29.4728 14.4425C29.6279 14.2875 29.7509 14.1034 29.8348 13.9008C29.9187 13.6982 29.9619 13.481 29.9619 13.2617C29.9619 13.0424 29.9187 12.8253 29.8348 12.6227C29.7509 12.4201 29.6279 12.236 29.4728 12.0809C29.3177 11.9258 29.1336 11.8028 28.931 11.7189C28.7284 11.635 28.5113 11.5918 28.292 11.5918C27.9112 11.5905 27.5417 11.7209 27.2461 11.9609C27.5719 12.6506 27.7401 13.4042 27.7383 14.167C27.7365 14.3845 27.7218 14.6016 27.6943 14.8174ZM20.7773 12.1016C21.0068 11.5479 21.1147 10.9515 21.0938 10.3525H21.1289C21.1201 10.3086 21.1025 10.2734 21.0938 10.2295C20.2926 10.517 19.5983 11.0421 19.1036 11.7347C18.6089 12.4273 18.3373 13.2544 18.3252 14.1055C19.5117 13.8066 20.3379 13.1299 20.7773 12.1016ZM18.4395 15.1514C18.6366 15.9594 19.0702 16.6902 19.6849 17.2505C20.2995 17.8108 21.0673 18.1751 21.89 18.2968C22.7128 18.4185 23.5531 18.2921 24.3037 17.9338C25.0542 17.5754 25.6809 17.0015 26.1035 16.2852C24.4688 15.6523 23.0889 14.3779 22.0869 12.5762L21.876 12.1807C21.8408 12.2861 21.7969 12.4004 21.7529 12.5146C21.3311 13.4902 20.4258 14.7119 18.4395 15.1514ZM26.5166 15.3096C26.6983 14.6871 26.7323 14.0309 26.6158 13.393C26.4993 12.7552 26.2356 12.1533 25.8456 11.6353C25.4556 11.1173 24.9501 10.6974 24.3693 10.4091C23.7885 10.1208 23.1484 9.97204 22.5 9.97461C22.377 9.97461 22.2539 9.9834 22.1309 9.99219C22.5088 11.2314 23.7129 14.2461 26.5166 15.3096ZM36.7383 14.2021C37.3797 14.2021 38.0068 14.0119 38.5401 13.6556C39.0734 13.2992 39.4891 12.7927 39.7346 12.2001C39.98 11.6075 40.0443 10.9554 39.9191 10.3263C39.794 9.69716 39.4851 9.11929 39.0315 8.66572C38.578 8.21216 38.0001 7.90328 37.371 7.77814C36.7419 7.653 36.0898 7.71723 35.4972 7.96269C34.9046 8.20816 34.3981 8.62384 34.0417 9.15718C33.6853 9.69052 33.4951 10.3175 33.4951 10.959C33.496 11.8189 33.838 12.6433 34.446 13.2513C35.054 13.8593 35.8784 14.2013 36.7383 14.2021ZM14.7656 21.4619V19.6338C14.7653 18.9187 14.4971 18.2298 14.0139 17.7027C13.5307 17.1756 12.8676 16.8486 12.1553 16.7861C11.682 17.3606 11.0874 17.8232 10.4143 18.1408C9.74112 18.4583 9.00603 18.623 8.26172 18.623C7.51741 18.623 6.78232 18.4583 6.10917 18.1408C5.43601 17.8232 4.84146 17.3606 4.36816 16.7861C3.65559 16.8519 2.99318 17.1812 2.51044 17.7094C2.02769 18.2377 1.75933 18.927 1.75781 19.6426V25.7686H13.1836V25.0127C13.1847 24.3432 13.326 23.6813 13.5985 23.0697C13.871 22.4582 14.2686 21.9105 14.7656 21.4619ZM26.6309 26.8232C27.6945 25.5977 29.1244 24.7472 30.709 24.3975C30.5733 23.5749 30.1634 22.8224 29.5458 22.2623C28.9283 21.7022 28.1395 21.3675 27.3076 21.3125C26.7278 22.0289 25.9952 22.6067 25.1634 23.0036C24.3316 23.4005 23.4216 23.6064 22.5 23.6064C21.5784 23.6064 20.6684 23.4005 19.8366 23.0036C19.0048 22.6067 18.2722 22.0289 17.6924 21.3125C16.7556 21.3785 15.8785 21.7968 15.2377 22.4833C14.5968 23.1698 14.2397 24.0736 14.2383 25.0127V32.7998H24.8555C24.8096 32.4589 24.7861 32.1154 24.7852 31.7715C24.7862 29.954 25.4414 28.1975 26.6309 26.8232ZM40.6318 16.7861C40.1585 17.3606 39.564 17.8232 38.8908 18.1408C38.2177 18.4583 37.4826 18.623 36.7383 18.623C35.994 18.623 35.2589 18.4583 34.5857 18.1408C33.9126 17.8232 33.318 17.3606 32.8447 16.7861C32.1329 16.85 31.4707 17.1774 30.9878 17.7042C30.5049 18.231 30.2362 18.9192 30.2344 19.6338V21.4531C31.0464 22.1795 31.5833 23.1634 31.7549 24.2393C31.9482 24.2217 32.1504 24.2129 32.3438 24.2129C34 24.2115 35.6102 24.7585 36.9229 25.7686H43.2422V19.6426C43.2407 18.927 42.9723 18.2377 42.4896 17.7094C42.0068 17.1812 41.3444 16.8519 40.6318 16.7861ZM8.26172 14.2021C8.90316 14.2021 9.53019 14.0119 10.0635 13.6556C10.5969 13.2992 11.0125 12.7927 11.258 12.2001C11.5035 11.6075 11.5677 10.9554 11.4426 10.3263C11.3174 9.69716 11.0085 9.11929 10.555 8.66572C10.1014 8.21216 9.52354 7.90328 8.89443 7.77814C8.26532 7.653 7.61322 7.71723 7.02061 7.96269C6.428 8.20816 5.92149 8.62384 5.56513 9.15718C5.20876 9.69052 5.01855 10.3175 5.01855 10.959C5.01944 11.8189 5.36141 12.6433 5.96943 13.2513C6.57745 13.8593 7.40185 14.2013 8.26172 14.2021Z" fill="#03517C"/>
</svg>
