<svg width="58" height="58" viewBox="0 0 58 58" fill="none" xmlns="http://www.w3.org/2000/svg">
<g clip-path="url(#clip0_77_1276)">
<path d="M29 0C12.987 0 0 12.987 0 29C0 45.013 12.987 58 29 58C45.013 58 58 45.013 58 29C58 12.987 45.013 0 29 0ZM31.3326 52.8304C31.2065 52.8304 31.0804 52.8304 30.8913 52.8935V39.213C34.1696 39.15 37.1326 39.087 39.8435 38.8978C37.4478 46.2739 32.9717 51.1913 31.3326 52.8304ZM26.6674 52.8304C24.9652 51.1283 20.5522 46.2109 18.1565 38.8978C20.8043 39.087 23.8304 39.213 27.1087 39.213V52.8935C26.9826 52.8935 26.8565 52.8304 26.6674 52.8304ZM5.04348 29C5.04348 27.4239 5.23261 25.8478 5.48478 24.3348C6.87174 24.0826 9.51957 23.7043 13.2391 23.3261C12.9239 25.1543 12.7348 27.0457 12.7348 29.063C12.7348 31.0804 12.9239 32.9717 13.1761 34.737C9.51957 34.3587 6.8087 33.9804 5.42174 33.7283C5.23261 32.1522 5.04348 30.5761 5.04348 29ZM16.5804 29C16.5804 26.8565 16.8326 24.8391 17.2109 22.9478C20.1109 22.7587 23.3891 22.5696 27.1087 22.5696V35.4304C23.4522 35.3674 20.1109 35.2413 17.1478 34.9891C16.8326 33.1609 16.5804 31.1435 16.5804 29ZM31.2696 5.16957C32.9717 6.87174 37.3217 11.9152 39.7804 19.1022C37.1326 18.913 34.1696 18.787 30.8913 18.787V5.10652C31.0174 5.10652 31.1435 5.16957 31.2696 5.16957ZM27.1087 5.10652V18.787C23.8304 18.85 20.8674 18.913 18.2196 19.1022C20.6152 11.9152 25.0283 6.87174 26.6674 5.16957C26.8565 5.16957 26.9826 5.10652 27.1087 5.10652ZM30.8913 35.4304V22.5696C34.5478 22.6326 37.8891 22.7587 40.7891 22.9478C41.1674 24.8391 41.4196 26.8565 41.4196 29C41.4196 31.1435 41.2304 33.1609 40.8522 35.0522C37.9522 35.2413 34.6109 35.3674 30.8913 35.4304ZM44.6978 23.3261C48.4174 23.7043 51.0652 24.0826 52.4522 24.3348C52.7674 25.8478 52.9565 27.4239 52.9565 29C52.9565 30.5761 52.7674 32.1522 52.5152 33.6652C51.1283 33.9174 48.4804 34.2957 44.7609 34.6739C45.0761 32.8457 45.2022 30.9543 45.2022 28.937C45.2022 27.0457 45.013 25.0913 44.6978 23.3261ZM51.3174 20.3C49.5522 20.0478 47.0304 19.7326 43.8152 19.4174C42.3022 13.9957 39.6544 9.64565 37.4478 6.55652C43.8152 8.95217 48.8587 13.9957 51.3174 20.3ZM20.5522 6.55652C18.2826 9.58261 15.6978 13.9326 14.1848 19.3543C11.0326 19.6065 8.51087 19.9848 6.68261 20.237C9.1413 13.9957 14.2478 8.95217 20.5522 6.55652ZM6.68261 37.7C8.44783 37.9522 10.9696 38.2674 14.1217 38.5826C15.6348 44.0043 18.1565 48.3544 20.4261 51.3804C14.1217 48.9217 9.1413 43.9413 6.68261 37.7ZM37.5739 51.3804C39.8435 48.3544 42.3652 44.0674 43.8783 38.6457C47.0304 38.3935 49.5522 38.0152 51.3174 37.763C48.8587 43.9413 43.8783 48.9217 37.5739 51.3804Z" fill="black"/>
</g>
<defs>
<clipPath id="clip0_77_1276">
<rect width="58" height="58" fill="white"/>
</clipPath>
</defs>
</svg>
