<svg width="62" height="43" viewBox="0 0 62 43" fill="none" xmlns="http://www.w3.org/2000/svg">
<path d="M0.474426 38.4554V4.54465C0.474426 4.5054 0.533299 4.13254 0.651045 3.42606L20.6089 20.4992L0.709918 39.6329C0.552923 39.0834 0.474426 38.6909 0.474426 38.4554ZM3.1237 1.07115C3.39844 0.953404 3.73206 0.894531 4.12454 0.894531H57.8755C58.2287 0.894531 58.5819 0.953404 58.9352 1.07115L38.9184 18.2031L36.2691 20.3226L31.0294 24.6203L25.7898 20.3226L23.1405 18.2031L3.1237 1.07115ZM3.18258 41.9289L23.2582 22.6775L31.0294 28.9769L38.8007 22.6775L58.8763 41.9289C58.5623 42.0466 58.2287 42.1055 57.8755 42.1055H4.12454C3.81055 42.1055 3.49657 42.0466 3.18258 41.9289ZM41.4499 20.4992L61.349 3.42606C61.4667 3.7793 61.5256 4.15216 61.5256 4.54465V38.4554C61.5256 38.8086 61.4667 39.2011 61.349 39.6329L41.4499 20.4992Z" fill="black"/>
</svg>
