<svg width="52" height="53" viewBox="0 0 52 53" fill="none" xmlns="http://www.w3.org/2000/svg">
<path d="M46.2676 25.1461H51.6722C51.6722 11.2833 41.2062 0.828125 27.3245 0.828125V6.23271C38.3012 6.23271 46.2676 14.1856 46.2676 25.1461Z" fill="black"/>
<path d="M27.3515 17.0418C33.0344 17.0418 35.4584 19.4658 35.4584 25.1487H40.863C40.863 16.4338 36.0664 11.6372 27.3515 11.6372V17.0418ZM36.5988 31.7504C35.5205 30.7695 33.8559 30.8208 32.8399 31.8666L26.3733 38.5169C24.8168 38.2197 21.6875 37.2442 18.4664 34.0311C15.2452 30.8073 14.2697 27.6699 13.9806 26.1242L20.6255 19.6549C21.674 18.6389 21.7226 16.977 20.7417 15.896L10.7567 4.91662C9.77579 3.833 8.10847 3.73032 6.99783 4.68152L1.13385 9.71049C0.666354 10.1807 0.388017 10.8022 0.350185 11.4643C0.30965 12.1399 -0.463205 28.1428 11.9457 40.5572C22.7711 51.3799 36.3312 52.1716 40.0658 52.1716C40.6117 52.1716 40.9468 52.1554 41.0359 52.15C41.698 52.1122 42.3195 51.8339 42.787 51.3637L47.8133 45.497C48.7672 44.3863 48.6591 42.7217 47.5809 41.7381L36.5988 31.7504Z" fill="black"/>
</svg>
