<svg width="53" height="66" viewBox="0 0 53 66" fill="none" xmlns="http://www.w3.org/2000/svg">
<path d="M26.5009 0.972656C16.0264 0.972656 7.44397 9.53055 7.44397 19.9751C7.44397 24.022 8.73628 27.7827 10.924 30.8747L24.1753 53.7818C26.0311 56.2062 27.2651 55.7458 28.8081 53.6541L43.4236 28.7814C43.7188 28.2472 43.9502 27.6785 44.1522 27.0977C45.0543 24.8944 45.5561 22.4908 45.5561 19.9751C45.5561 9.53055 36.9754 0.972656 26.5009 0.972656ZM26.5009 9.87675C32.1411 9.87675 36.6265 14.351 36.6265 19.9751C36.6265 25.5992 32.1411 30.0719 26.5009 30.0719C20.8607 30.0719 16.3736 25.5992 16.3736 19.9751C16.3736 14.351 20.8607 9.87675 26.5009 9.87675Z" fill="black"/>
<path d="M38.6147 32.2998L38.5835 32.3813C38.5936 32.3566 38.6011 32.3318 38.6111 32.307C38.612 32.3045 38.6136 32.3023 38.6147 32.2998Z" fill="black"/>
<path d="M16.2551 45.2065C7.20696 46.4854 0.878418 49.544 0.878418 54.0465C0.878418 60.111 11.4527 65.027 26.5 65.027C41.5474 65.027 52.1217 60.111 52.1217 54.0465C52.1217 49.5442 45.7939 46.4855 36.7462 45.2065C36.3288 45.9183 35.9101 46.6291 35.4926 47.3408C42.3118 48.287 46.9973 50.2755 46.9973 52.5828C46.9973 55.8172 37.8204 58.439 26.5 58.439C15.1797 58.439 6.00274 55.8172 6.00274 52.5828C6.00192 50.2835 10.6571 48.2967 17.4974 47.3471C17.0839 46.6332 16.6683 45.9207 16.2551 45.2065Z" fill="black"/>
</svg>
